<svg width="30" height="30" viewBox="0 0 30 30" fill="none" xmlns="http://www.w3.org/2000/svg">
<circle cx="15" cy="15" r="13" fill="#FFD747"/>
<path fill-rule="evenodd" clip-rule="evenodd" d="M14.2362 7C14.0521 7 13.9029 7.14923 13.9029 7.33332V8.7611C12.7393 8.95358 11.8339 9.39827 11.2046 10.0268C10.5211 10.7095 10.1851 11.5879 10.1851 12.5288C10.1851 13.6426 10.6133 14.4178 11.2646 14.9598C11.8983 15.4873 12.7248 15.7785 13.5028 15.9851C13.8311 16.0723 14.1599 16.1465 14.4675 16.216L14.4676 16.216L14.6416 16.2554C15.0023 16.3374 15.3239 16.4143 15.5951 16.5031C15.8704 16.5932 16.0625 16.6861 16.1817 16.7849C16.2882 16.8731 16.3248 16.9543 16.3248 17.0535C16.3248 17.1896 16.2743 17.3043 16.0916 17.4055C15.8833 17.521 15.5109 17.6095 14.8995 17.6095C13.7177 17.6095 12.4244 17.1931 11.5214 16.5892C11.4395 16.5344 11.3375 16.5187 11.2429 16.5462C11.1483 16.5738 11.0707 16.6418 11.031 16.732L10.0283 19.0099C9.96412 19.1556 10.012 19.3264 10.1427 19.4175C11.0391 20.0429 12.4338 20.4889 13.9029 20.6359V21.9994C13.9029 22.1834 14.0521 22.3327 14.2362 22.3327H16.0874C16.2715 22.3327 16.4207 22.1834 16.4207 21.9994V20.549C17.5418 20.3356 18.413 19.8835 19.0182 19.2615C19.6756 18.5858 19.9996 17.7288 19.9996 16.8194C19.9996 15.7129 19.5719 14.9423 18.9219 14.4044C18.2894 13.881 17.4648 13.5929 16.6884 13.3902C16.35 13.3018 16.0114 13.2275 15.6958 13.1582L15.5516 13.1265C15.1914 13.0471 14.8701 12.9732 14.599 12.8879C14.3235 12.8012 14.1316 12.7121 14.013 12.6175C13.9072 12.5331 13.8753 12.4594 13.8753 12.3728C13.8753 12.2103 13.9358 12.0715 14.1139 11.9569C14.3124 11.8291 14.6739 11.7232 15.2852 11.7232C16.1601 11.7232 17.1238 11.9846 18.1188 12.5253C18.202 12.5705 18.3004 12.5782 18.3896 12.5464C18.4789 12.5147 18.5503 12.4465 18.5863 12.3589L19.5273 10.0654C19.59 9.91267 19.5314 9.73708 19.3896 9.65256C18.5512 9.15291 17.4956 8.8404 16.4207 8.71635V7.33332C16.4207 7.14923 16.2715 7 16.0874 7H14.2362Z" fill="white"/>
</svg>
