<svg width="30" height="30" viewBox="0 0 30 30" fill="none" xmlns="http://www.w3.org/2000/svg">
<path fill-rule="evenodd" clip-rule="evenodd" d="M13.115 6.23649C14.2147 5.34825 15.7853 5.34825 16.885 6.23649L23.885 11.8903C24.5902 12.4599 25 13.3177 25 14.2242V21.9994C25 23.6563 23.6569 24.9994 22 24.9994H8C6.34315 24.9994 5 23.6563 5 21.9994V14.2242C5 13.3177 5.40983 12.4599 6.11499 11.8903L13.115 6.23649ZM15 10.9995C15.5523 10.9995 16 11.4472 16 11.9995V15.9995H20C20.5523 15.9995 21 16.4472 21 16.9995C21 17.5518 20.5523 17.9995 20 17.9995H16V21.9995C16 22.5518 15.5523 22.9995 15 22.9995C14.4477 22.9995 14 22.5518 14 21.9995V17.9995H10C9.44772 17.9995 9 17.5518 9 16.9995C9 16.4472 9.44772 15.9995 10 15.9995H14V11.9995C14 11.4472 14.4477 10.9995 15 10.9995Z" fill="#63B865"/>
</svg>
