<svg width="30" height="30" viewBox="0 0 30 30" fill="none" xmlns="http://www.w3.org/2000/svg">
<rect x="10" y="6" width="4" height="10" rx="1" fill="#FAF9F7"/>
<rect x="10" y="17" width="4" height="7" rx="1" fill="#FAF9F7"/>
<rect x="15" y="17" width="4" height="7" rx="1" fill="#FAF9F7"/>
<path fill-rule="evenodd" clip-rule="evenodd" d="M15.7473 15.7292C15.2867 15.7292 14.9411 15.3258 15.0084 14.8701C15.4154 12.1135 17.7511 10 20.5715 10C21.0321 10 21.3777 10.4035 21.3104 10.8591C20.9033 13.6157 18.5677 15.7292 15.7473 15.7292Z" fill="#FAF9F7"/>
<path fill-rule="evenodd" clip-rule="evenodd" d="M16.4004 10.6216C16.1039 10.7011 15.8157 10.5 15.786 10.1937C15.6085 8.36351 16.7694 6.61377 18.5796 6.12875C18.8761 6.04928 19.1643 6.2504 19.194 6.5567C19.3715 8.38686 18.2106 10.1366 16.4004 10.6216Z" fill="#FAF9F7"/>
</svg>
