<svg width="30" height="35" viewBox="0 0 30 35" fill="none" xmlns="http://www.w3.org/2000/svg">
<g filter="url(#filter0_d_447_1168)">
<rect x="9" y="4" width="4" height="10" rx="1" fill="#63B865"/>
<rect x="9" y="16.2373" width="4" height="10" rx="1" fill="#63B865"/>
<rect x="15" y="16.2373" width="4" height="10" rx="1" fill="#63B865"/>
<path fill-rule="evenodd" clip-rule="evenodd" d="M16.8722 14.2362C16.3709 14.2272 15.9954 13.7898 16.0624 13.2929C16.5236 9.87355 19.4536 7.2373 22.9993 7.2373C23.0417 7.2373 23.0841 7.23768 23.1264 7.23844C23.6277 7.24736 24.0031 7.68483 23.9361 8.18171C23.475 11.6011 20.545 14.2373 16.9993 14.2373C16.9568 14.2373 16.9145 14.2369 16.8722 14.2362Z" fill="#63B865"/>
<path fill-rule="evenodd" clip-rule="evenodd" d="M16.622 9.33252C16.293 9.52246 15.8794 9.3773 15.7415 9.02332C14.9249 6.92684 15.7373 4.49102 17.7459 3.33137C18.0749 3.14142 18.4885 3.28659 18.6264 3.64057C19.443 5.73705 18.6306 8.17287 16.622 9.33252Z" fill="#63B865"/>
</g>
<defs>
<filter id="filter0_d_447_1168" x="5" y="3.24707" width="22.9434" height="30.9902" filterUnits="userSpaceOnUse" color-interpolation-filters="sRGB">
<feFlood flood-opacity="0" result="BackgroundImageFix"/>
<feColorMatrix in="SourceAlpha" type="matrix" values="0 0 0 0 0 0 0 0 0 0 0 0 0 0 0 0 0 0 127 0" result="hardAlpha"/>
<feOffset dy="4"/>
<feGaussianBlur stdDeviation="2"/>
<feComposite in2="hardAlpha" operator="out"/>
<feColorMatrix type="matrix" values="0 0 0 0 0 0 0 0 0 0 0 0 0 0 0 0 0 0 0.25 0"/>
<feBlend mode="normal" in2="BackgroundImageFix" result="effect1_dropShadow_447_1168"/>
<feBlend mode="normal" in="SourceGraphic" in2="effect1_dropShadow_447_1168" result="shape"/>
</filter>
</defs>
</svg>
