<svg xmlns="http://www.w3.org/2000/svg" width="44" height="44" viewBox="0 0 44 44" fill="none">
<rect x="16.3184" y="11.916" width="4" height="10" rx="1" fill="#63B865"/>
<rect x="16.3184" y="24.2402" width="4" height="8" rx="1" fill="#63B865"/>
<rect x="21.9199" y="24.2402" width="4" height="8" rx="1" fill="#63B865"/>
<path fill-rule="evenodd" clip-rule="evenodd" d="M22.8081 22.9997C22.3137 22.9972 21.9483 22.5621 22.006 22.0712C22.4091 18.6443 25.0122 16 28.1633 16C28.1731 16 28.1828 16 28.1925 16.0001C28.6868 16.0026 29.0523 16.4376 28.9945 16.9286C28.5914 20.3555 25.9883 22.9998 22.8372 22.9998C22.8275 22.9998 22.8178 22.9998 22.8081 22.9997Z" fill="#63B865"/>
<path fill-rule="evenodd" clip-rule="evenodd" d="M23.4333 16.7909C23.152 16.8663 22.8814 16.6734 22.8449 16.3839C22.5986 14.4305 23.6678 12.5883 25.4041 12.123C25.6854 12.0477 25.9561 12.2406 25.9926 12.53C26.2388 14.4834 25.1697 16.3257 23.4333 16.7909Z" fill="#63B865"/>
</svg>