<svg width="30" height="30" viewBox="0 0 30 30" fill="none" xmlns="http://www.w3.org/2000/svg">
<path fill-rule="evenodd" clip-rule="evenodd" d="M16.0005 2.57752C15.3817 2.22025 14.6193 2.22025 14.0005 2.57752L5.30918 7.59547L15.0003 13.1906L24.6916 7.59532L16.0005 2.57752ZM3.74219 20.3455V11.3096L13 16.6546L13 26.8452L4.74219 22.0775C4.12338 21.7203 3.74219 21.06 3.74219 20.3455ZM17 26.8458L25.2589 22.0775C25.8777 21.7203 26.2589 21.06 26.2589 20.3455V11.3093L17 16.6549L17 26.8458Z" fill="#FFD747"/>
<path d="M14.0005 2.57752L14.5005 3.44354L14.0005 2.57752ZM16.0005 2.57752L15.5005 3.44354L16.0005 2.57752ZM5.30918 7.59547L4.80918 6.72944C4.49977 6.90808 4.30918 7.2382 4.30918 7.59547C4.30918 7.95273 4.49977 8.28286 4.80918 8.46149L5.30918 7.59547ZM15.0003 13.1906L14.5003 14.0566C14.8097 14.2353 15.1909 14.2353 15.5003 14.0566L15.0003 13.1906ZM24.6916 7.59532L25.1916 8.46134C25.501 8.28271 25.6916 7.95258 25.6916 7.59532C25.6916 7.23805 25.501 6.90793 25.1916 6.72929L24.6916 7.59532ZM3.74219 11.3096L4.24219 10.4435C3.93279 10.2649 3.55159 10.2649 3.24219 10.4435C2.93279 10.6222 2.74219 10.9523 2.74219 11.3096H3.74219ZM13 16.6546H14C14 16.2973 13.8094 15.9672 13.5 15.7885L13 16.6546ZM13 26.8452L12.5 27.7112C12.8094 27.8898 13.1906 27.8898 13.5 27.7112C13.8094 27.5326 14 27.2024 14 26.8452H13ZM4.74219 22.0775L5.24219 21.2115H5.24219L4.74219 22.0775ZM17 26.8458H16C16 27.203 16.1906 27.5332 16.5 27.7118C16.8094 27.8904 17.1906 27.8904 17.5 27.7118L17 26.8458ZM25.2589 22.0775L24.7589 21.2115L25.2589 22.0775ZM26.2589 11.3093H27.2589C27.2589 10.952 27.0683 10.6219 26.7589 10.4432C26.4494 10.2646 26.0683 10.2646 25.7589 10.4432L26.2589 11.3093ZM17 16.6549L16.5 15.7888C16.1906 15.9675 16 16.2976 16 16.6549H17ZM14.5005 3.44354C14.8099 3.26491 15.1911 3.26491 15.5005 3.44354L16.5005 1.71149C15.5723 1.1756 14.4287 1.1756 13.5005 1.71149L14.5005 3.44354ZM5.80918 8.46149L14.5005 3.44354L13.5005 1.71149L4.80918 6.72944L5.80918 8.46149ZM15.5003 12.3246L5.80918 6.72944L4.80918 8.46149L14.5003 14.0566L15.5003 12.3246ZM24.1916 6.72929L14.5003 12.3246L15.5003 14.0566L25.1916 8.46134L24.1916 6.72929ZM15.5005 3.44354L24.1916 8.46134L25.1916 6.72929L16.5005 1.71149L15.5005 3.44354ZM2.74219 11.3096V20.3455H4.74219V11.3096H2.74219ZM13.5 15.7885L4.24219 10.4435L3.24219 12.1756L12.5 17.5206L13.5 15.7885ZM14 26.8452L14 16.6546H12L12 26.8452H14ZM4.24219 22.9435L12.5 27.7112L13.5 25.9791L5.24219 21.2115L4.24219 22.9435ZM2.74219 20.3455C2.74219 21.4173 3.31398 22.4076 4.24219 22.9435L5.24219 21.2115C4.93279 21.0329 4.74219 20.7027 4.74219 20.3455H2.74219ZM17.5 27.7118L25.7589 22.9435L24.7589 21.2115L16.5 25.9797L17.5 27.7118ZM25.7589 22.9435C26.6871 22.4076 27.2589 21.4173 27.2589 20.3455H25.2589C25.2589 20.7027 25.0683 21.0329 24.7589 21.2115L25.7589 22.9435ZM27.2589 20.3455V11.3093H25.2589V20.3455H27.2589ZM25.7589 10.4432L16.5 15.7888L17.5 17.5209L26.7589 12.1753L25.7589 10.4432ZM16 16.6549L16 26.8458H18L18 16.6549H16Z" fill="#FFD747"/>
</svg>
