<svg width="16" height="24" viewBox="0 0 16 24" fill="none" xmlns="http://www.w3.org/2000/svg">
<rect x="0.171875" width="4.72343" height="11.8086" rx="1" fill="#63B865"/>
<rect x="0.171875" y="14.5527" width="4.72343" height="9.44686" rx="1" fill="#63B865"/>
<rect x="6.78516" y="14.5527" width="4.72343" height="9.44686" rx="1" fill="#63B865"/>
<path fill-rule="evenodd" clip-rule="evenodd" d="M7.67827 13.086C7.18418 13.0718 6.82028 12.639 6.86973 12.1472C7.28421 8.02515 10.389 4.82227 14.1577 4.82227C14.2212 4.82227 14.2846 4.82318 14.3478 4.82499C14.8419 4.83916 15.2058 5.27194 15.1564 5.76376C14.7419 9.88581 11.6371 13.0887 7.86846 13.0887C7.80487 13.0887 7.74147 13.0878 7.67827 13.086Z" fill="#63B865"/>
<path fill-rule="evenodd" clip-rule="evenodd" d="M8.57294 5.75508C8.24103 5.84401 7.92162 5.61637 7.87855 5.2748C7.58774 2.96811 8.85023 0.792621 10.9006 0.243217C11.2325 0.154281 11.552 0.381928 11.595 0.723493C11.8858 3.03018 10.6234 5.20567 8.57294 5.75508Z" fill="#63B865"/>
</svg>
