<svg width="44" height="44" viewBox="0 0 44 44" fill="none" xmlns="http://www.w3.org/2000/svg">
<rect x="16.3184" y="11.916" width="4" height="10" rx="1" fill="#63B865"/>
<rect x="16.3184" y="24.2402" width="4" height="8" rx="1" fill="#63B865"/>
<rect x="21.9199" y="24.2402" width="4" height="8" rx="1" fill="#63B865"/>
<path fill-rule="evenodd" clip-rule="evenodd" d="M22.8081 23C22.3138 22.9974 21.9483 22.5624 22.006 22.0715C22.409 18.6444 25.0121 16 28.1634 16C28.1729 16 28.1824 16 28.1919 16.0001C28.6863 16.0026 29.0518 16.4376 28.994 16.9286C28.5911 20.3556 25.9879 23 22.8367 23C22.8272 23 22.8176 23 22.8081 23Z" fill="#63B865"/>
<path fill-rule="evenodd" clip-rule="evenodd" d="M23.4345 16.7912C23.1525 16.8668 22.8812 16.6734 22.8447 16.3832C22.5988 14.4301 23.6679 12.5882 25.404 12.123C25.686 12.0475 25.9573 12.2409 25.9938 12.5311C26.2397 14.4842 25.1706 16.326 23.4345 16.7912Z" fill="#63B865"/>
</svg>
