<svg width="60" height="60" viewBox="0 0 60 60" fill="none" xmlns="http://www.w3.org/2000/svg">
<rect x="21.9902" y="16.0898" width="5.04724" height="12.6181" rx="1" fill="#FAF9F7"/>
<rect x="22" y="31.9121" width="5" height="12" rx="1" fill="#FAF9F7"/>
<rect x="29" y="31.9121" width="5" height="12" rx="1" fill="#FAF9F7"/>
<path fill-rule="evenodd" clip-rule="evenodd" d="M29.9516 30.0717C29.4576 30.0534 29.0942 29.6212 29.1407 29.129C29.5603 24.6966 32.8893 21.2441 36.9339 21.2441C37.0215 21.2441 37.1088 21.2458 37.1957 21.249C37.6897 21.2672 38.0531 21.6995 38.0065 22.1916C37.5869 26.6241 34.2579 30.0765 30.2133 30.0765C30.1257 30.0765 30.0385 30.0749 29.9516 30.0717Z" fill="#FAF9F7"/>
<path fill-rule="evenodd" clip-rule="evenodd" d="M30.9687 22.2404C30.6137 22.3355 30.2721 22.092 30.2261 21.7267C29.9157 19.2622 31.2647 16.938 33.4554 16.351C33.8104 16.2559 34.152 16.4994 34.198 16.8648C34.5084 19.3293 33.1594 21.6534 30.9687 22.2404Z" fill="#FAF9F7"/>
</svg>
