<svg width="22" height="22" viewBox="0 0 22 22" fill="none" xmlns="http://www.w3.org/2000/svg">
<path d="M7.86837 3.74881C9.26204 1.2496 9.95832 0 11 0C12.0417 0 12.738 1.2496 14.1316 3.74881L14.4924 4.39561C14.8884 5.10622 15.0864 5.46152 15.3944 5.69582C15.7024 5.93012 16.0874 6.01702 16.8574 6.19082L17.5569 6.34922C20.2629 6.96192 21.6147 7.26772 21.937 8.30283C22.2582 9.33683 21.3365 10.4159 19.4918 12.573L19.0144 13.1307C18.4908 13.7434 18.2279 14.0503 18.1102 14.4287C17.9925 14.8082 18.0321 15.2174 18.1113 16.0347L18.1839 16.7795C18.4622 19.6582 18.6019 21.097 17.7593 21.7361C16.9168 22.3763 15.6496 21.7922 13.1174 20.6262L12.4608 20.3248C11.7414 19.9926 11.3817 19.8276 11 19.8276C10.6183 19.8276 10.2586 19.9926 9.53923 20.3248L8.88365 20.6262C6.35041 21.7922 5.08324 22.3752 4.24176 21.7372C3.39808 21.097 3.53778 19.6582 3.81607 16.7795L3.88867 16.0358C3.96786 15.2174 4.00746 14.8082 3.88867 14.4298C3.77207 14.0503 3.50918 13.7434 2.98559 13.1318L2.5082 12.573C0.663543 10.417 -0.258235 9.33793 0.062957 8.30283C0.385249 7.26772 1.73822 6.96082 4.44415 6.34922L5.14374 6.19082C5.91262 6.01702 6.29651 5.93012 6.6056 5.69582C6.9136 5.46152 7.11159 5.10622 7.50758 4.39561L7.86837 3.74881Z" fill="#FFD747"/>
</svg>
