<svg width="24" height="24" viewBox="0 0 24 24" fill="none" xmlns="http://www.w3.org/2000/svg">
<path d="M8.86837 4.74881C10.262 2.2496 10.9583 1 12 1C13.0417 1 13.738 2.2496 15.1316 4.74881L15.4924 5.39561C15.8884 6.10622 16.0864 6.46152 16.3944 6.69582C16.7024 6.93012 17.0874 7.01702 17.8574 7.19082L18.5569 7.34922C21.2629 7.96192 22.6147 8.26772 22.937 9.30283C23.2582 10.3368 22.3365 11.4159 20.4918 13.573L20.0144 14.1307C19.4908 14.7434 19.2279 15.0503 19.1102 15.4287C18.9925 15.8082 19.0321 16.2174 19.1113 17.0347L19.1839 17.7795C19.4622 20.6582 19.6019 22.097 18.7593 22.7361C17.9168 23.3763 16.6496 22.7922 14.1174 21.6262L13.4608 21.3248C12.7414 20.9926 12.3817 20.8276 12 20.8276C11.6183 20.8276 11.2586 20.9926 10.5392 21.3248L9.88365 21.6262C7.35041 22.7922 6.08324 23.3752 5.24176 22.7372C4.39808 22.097 4.53777 20.6582 4.81607 17.7795L4.88867 17.0358C4.96786 16.2174 5.00746 15.8082 4.88867 15.4298C4.77207 15.0503 4.50918 14.7434 3.98559 14.1318L3.5082 13.573C1.66354 11.417 0.741765 10.3379 1.06296 9.30283C1.38525 8.26772 2.73822 7.96082 5.44415 7.34922L6.14374 7.19082C6.91262 7.01702 7.29651 6.93012 7.6056 6.69582C7.9136 6.46152 8.11159 6.10622 8.50758 5.39561L8.86837 4.74881Z" stroke="#B3B3B3"/>
</svg>
