<svg width="268" height="591" viewBox="0 0 268 591" fill="none" xmlns="http://www.w3.org/2000/svg">
<path d="M268 19.2549H0V571.745H268V19.2549Z" fill="#DDC38E"/>
<path d="M268 134.924H0V154.179H268V134.924Z" fill="#AA905F"/>
<path d="M268 256.775H0V276.03H268V256.775Z" fill="#AA905F"/>
<path d="M268 378.613H0V397.868H268V378.613Z" fill="#AA905F"/>
<path d="M268 500.465H0V519.72H268V500.465Z" fill="#AA905F"/>
<path d="M260.415 26.8406V564.159H7.58491V26.8406H260.415ZM268 19.2549H0V571.745H268V19.2549Z" fill="#AA905F"/>
<mask id="mask0_516_1925" style="mask-type:luminance" maskUnits="userSpaceOnUse" x="0" y="134" width="268" height="21">
<path d="M268 134.924H0V154.179H268V134.924Z" fill="white"/>
</mask>
<g mask="url(#mask0_516_1925)">
<path d="M59.3396 124.203C65.2558 124.203 70.0596 129.02 70.0596 134.924C70.0596 140.828 65.2432 145.645 59.3396 145.645C53.436 145.645 48.6196 140.828 48.6196 134.924C48.6196 129.02 53.436 124.203 59.3396 124.203ZM59.3396 122.938C52.7155 122.938 47.3555 128.312 47.3555 134.924C47.3555 141.536 52.7281 146.909 59.3396 146.909C65.9511 146.909 71.3238 141.536 71.3238 134.924C71.3238 128.312 65.9511 122.938 59.3396 122.938Z" fill="#755E37"/>
<path d="M59.3392 128.008C63.1569 128.008 66.2541 131.106 66.2541 134.924C66.2541 138.742 63.1569 141.84 59.3392 141.84C55.5215 141.84 52.4243 138.742 52.4243 134.924C52.4243 131.106 55.5215 128.008 59.3392 128.008ZM59.3392 126.744C54.8262 126.744 51.1602 130.411 51.1602 134.924C51.1602 139.438 54.8262 143.104 59.3392 143.104C63.8522 143.104 67.5183 139.438 67.5183 134.924C67.5183 130.411 63.8522 126.744 59.3392 126.744Z" fill="#755E37"/>
<path d="M59.3402 131.687C61.1227 131.687 62.5764 133.141 62.5764 134.924C62.5764 136.706 61.1227 138.16 59.3402 138.16C57.5578 138.16 56.104 136.706 56.104 134.924C56.104 133.141 57.5578 131.687 59.3402 131.687ZM59.3402 130.423C56.8498 130.423 54.8398 132.433 54.8398 134.924C54.8398 137.414 56.8498 139.425 59.3402 139.425C61.8306 139.425 63.8406 137.414 63.8406 134.924C63.8406 132.433 61.8306 130.423 59.3402 130.423Z" fill="#755E37"/>
<path d="M228.306 143.458C234.223 143.458 239.026 148.275 239.026 154.179C239.026 160.083 234.21 164.9 228.306 164.9C222.403 164.9 217.586 160.083 217.586 154.179C217.586 148.275 222.403 143.458 228.306 143.458ZM228.306 142.193C221.682 142.193 216.322 147.567 216.322 154.179C216.322 160.791 221.695 166.164 228.306 166.164C234.918 166.164 240.291 160.791 240.291 154.179C240.291 147.567 234.918 142.193 228.306 142.193Z" fill="#755E37"/>
<path d="M228.306 147.263C232.124 147.263 235.221 150.361 235.221 154.179C235.221 157.997 232.124 161.095 228.306 161.095C224.488 161.095 221.391 157.997 221.391 154.179C221.391 150.361 224.488 147.263 228.306 147.263ZM228.306 145.999C223.793 145.999 220.127 149.665 220.127 154.179C220.127 158.692 223.793 162.359 228.306 162.359C232.819 162.359 236.485 158.692 236.485 154.179C236.485 149.665 232.819 145.999 228.306 145.999Z" fill="#755E37"/>
<path d="M228.305 150.942C230.088 150.942 231.541 152.396 231.541 154.179C231.541 155.961 230.088 157.415 228.305 157.415C226.523 157.415 225.069 155.961 225.069 154.179C225.069 152.396 226.523 150.942 228.305 150.942ZM228.305 149.678C225.827 149.678 223.805 151.688 223.805 154.179C223.805 156.669 225.815 158.679 228.305 158.679C230.795 158.679 232.805 156.669 232.805 154.179C232.805 151.688 230.795 149.678 228.305 149.678Z" fill="#755E37"/>
</g>
<path d="M268 571.745H0V591H268V571.745Z" fill="#AA905F"/>
<path d="M7.16774 0H260.832C264.789 0 268 3.21127 268 7.16846V19.255H0V7.16846C0 3.21127 3.21094 0 7.16774 0Z" fill="#AA905F"/>
<mask id="mask1_516_1925" style="mask-type:luminance" maskUnits="userSpaceOnUse" x="0" y="256" width="268" height="21">
<path d="M268 256.775H0V276.03H268V256.775Z" fill="white"/>
</mask>
<g mask="url(#mask1_516_1925)">
<path d="M166.629 265.297C172.545 265.297 177.349 270.113 177.349 276.018C177.349 281.922 172.532 286.739 166.629 286.739C160.725 286.739 155.909 281.922 155.909 276.018C155.909 270.113 160.725 265.297 166.629 265.297ZM166.629 264.032C160.005 264.032 154.645 269.405 154.645 276.018C154.645 282.63 160.017 288.003 166.629 288.003C173.24 288.003 178.613 282.63 178.613 276.018C178.613 269.405 173.24 264.032 166.629 264.032Z" fill="#755E37"/>
<path d="M166.628 269.115C170.446 269.115 173.543 272.212 173.543 276.03C173.543 279.849 170.446 282.946 166.628 282.946C162.811 282.946 159.713 279.849 159.713 276.03C159.713 272.212 162.811 269.115 166.628 269.115ZM166.628 267.851C162.115 267.851 158.449 271.517 158.449 276.03C158.449 280.544 162.115 284.21 166.628 284.21C171.141 284.21 174.807 280.544 174.807 276.03C174.807 271.517 171.141 267.851 166.628 267.851Z" fill="#755E37"/>
<path d="M166.629 272.794C168.412 272.794 169.866 274.247 169.866 276.03C169.866 277.813 168.412 279.267 166.629 279.267C164.847 279.267 163.393 277.813 163.393 276.03C163.393 274.247 164.847 272.794 166.629 272.794ZM166.629 271.529C164.139 271.529 162.129 273.539 162.129 276.03C162.129 278.521 164.139 280.531 166.629 280.531C169.12 280.531 171.13 278.521 171.13 276.03C171.13 273.539 169.12 271.529 166.629 271.529Z" fill="#755E37"/>
</g>
<mask id="mask2_516_1925" style="mask-type:luminance" maskUnits="userSpaceOnUse" x="0" y="378" width="268" height="20">
<path d="M268 378.613H0V397.868H268V378.613Z" fill="white"/>
</mask>
<g mask="url(#mask2_516_1925)">
<path d="M36.0545 367.892C41.9707 367.892 46.7745 372.709 46.7745 378.613C46.7745 384.517 41.958 389.334 36.0545 389.334C30.1509 389.334 25.3345 384.517 25.3345 378.613C25.3345 372.709 30.1509 367.892 36.0545 367.892ZM36.0545 366.628C29.4303 366.628 24.0703 372.001 24.0703 378.613C24.0703 385.225 29.443 390.599 36.0545 390.599C42.666 390.599 48.0386 385.225 48.0386 378.613C48.0386 372.001 42.666 366.628 36.0545 366.628Z" fill="#755E37"/>
<path d="M36.0541 371.711C39.8718 371.711 42.969 374.808 42.969 378.626C42.969 382.444 39.8718 385.542 36.0541 385.542C32.2363 385.542 29.1392 382.444 29.1392 378.626C29.1392 374.808 32.2363 371.711 36.0541 371.711ZM36.0541 370.446C31.541 370.446 27.875 374.113 27.875 378.626C27.875 383.14 31.541 386.806 36.0541 386.806C40.5671 386.806 44.2331 383.14 44.2331 378.626C44.2331 374.113 40.5671 370.446 36.0541 370.446Z" fill="#755E37"/>
<path d="M36.0551 375.389C37.8375 375.389 39.2913 376.843 39.2913 378.626C39.2913 380.408 37.8375 381.862 36.0551 381.862C34.2726 381.862 32.8188 380.408 32.8188 378.626C32.8188 376.843 34.2726 375.389 36.0551 375.389ZM36.0551 374.125C33.5647 374.125 31.5547 376.135 31.5547 378.626C31.5547 381.116 33.5647 383.127 36.0551 383.127C38.5454 383.127 40.5554 381.116 40.5554 378.626C40.5554 376.135 38.5454 374.125 36.0551 374.125Z" fill="#755E37"/>
<path d="M213.97 387.147C219.887 387.147 224.69 391.964 224.69 397.868C224.69 403.772 219.874 408.589 213.97 408.589C208.067 408.589 203.25 403.772 203.25 397.868C203.25 391.964 208.067 387.147 213.97 387.147ZM213.97 385.883C207.346 385.883 201.986 391.256 201.986 397.868C201.986 404.48 207.359 409.854 213.97 409.854C220.582 409.854 225.955 404.48 225.955 397.868C225.955 391.256 220.582 385.883 213.97 385.883Z" fill="#755E37"/>
<path d="M213.972 390.953C217.79 390.953 220.887 394.05 220.887 397.868C220.887 401.686 217.79 404.784 213.972 404.784C210.154 404.784 207.057 401.686 207.057 397.868C207.057 394.05 210.154 390.953 213.972 390.953ZM213.972 389.688C209.459 389.688 205.793 393.355 205.793 397.868C205.793 402.382 209.459 406.048 213.972 406.048C218.485 406.048 222.151 402.382 222.151 397.868C222.151 393.355 218.485 389.688 213.972 389.688Z" fill="#755E37"/>
<path d="M213.971 394.644C215.754 394.644 217.207 396.098 217.207 397.881C217.207 399.663 215.754 401.117 213.971 401.117C212.189 401.117 210.735 399.663 210.735 397.881C210.735 396.098 212.189 394.644 213.971 394.644ZM213.971 393.38C211.481 393.38 209.471 395.39 209.471 397.881C209.471 400.371 211.481 402.382 213.971 402.382C216.461 402.382 218.471 400.371 218.471 397.881C218.471 395.39 216.461 393.38 213.971 393.38Z" fill="#755E37"/>
</g>
<mask id="mask3_516_1925" style="mask-type:luminance" maskUnits="userSpaceOnUse" x="0" y="500" width="204" height="20">
<path d="M203.288 500.465H0V519.72H203.288V500.465Z" fill="white"/>
</mask>
<g mask="url(#mask3_516_1925)">
<path d="M126.39 508.834C130.802 508.834 134.379 513.714 134.379 519.72C134.379 525.725 130.789 530.605 126.39 530.605C121.991 530.605 118.401 525.725 118.401 519.72C118.401 513.714 121.991 508.834 126.39 508.834ZM126.39 507.734C121.371 507.734 117.301 513.108 117.301 519.72C117.301 526.332 121.371 531.705 126.39 531.705C131.409 531.705 135.479 526.332 135.479 519.72C135.479 513.108 131.409 507.734 126.39 507.734Z" fill="#755E37"/>
<path d="M126.391 512.64C129.21 512.64 131.498 515.813 131.498 519.72C131.498 523.627 129.21 526.8 126.391 526.8C123.572 526.8 121.283 523.627 121.283 519.72C121.283 515.813 123.572 512.64 126.391 512.64ZM126.391 511.54C122.965 511.54 120.184 515.206 120.184 519.72C120.184 524.233 122.965 527.9 126.391 527.9C129.816 527.9 132.598 524.233 132.598 519.72C132.598 515.206 129.816 511.54 126.391 511.54Z" fill="#755E37"/>
<path d="M126.39 516.319C127.641 516.319 128.703 517.874 128.703 519.72C128.703 521.565 127.641 523.12 126.39 523.12C125.138 523.12 124.076 521.565 124.076 519.72C124.076 517.874 125.138 516.319 126.39 516.319ZM126.39 515.219C124.506 515.219 122.977 517.229 122.977 519.72C122.977 522.21 124.506 524.22 126.39 524.22C128.273 524.22 129.803 522.21 129.803 519.72C129.803 517.229 128.273 515.219 126.39 515.219Z" fill="#755E37"/>
</g>
</svg>
