<svg width="44" height="45" viewBox="0 0 44 45" fill="none" xmlns="http://www.w3.org/2000/svg">
<rect width="44" height="45" fill="#F2F2F2"/>
<rect width="933" height="806" transform="translate(-588 -385)" fill="white"/>
<g clip-path="url(#clip0_0_1)">
<g filter="url(#filter0_d_0_1)">
<rect width="390" height="71" transform="translate(-101 -11)" fill="#FAF9F7"/>
<path d="M24 33.5H13C11.8954 33.5 10.981 32.5966 11.1795 31.5101C12.116 26.3848 16.6043 22.5 22 22.5C27.3957 22.5 31.884 26.3848 32.8205 31.5101C33.019 32.5966 32.1046 33.5 31 33.5H29" stroke="#808080" stroke-width="2" stroke-linecap="round" stroke-linejoin="round"/>
<circle cx="6" cy="6" r="6" transform="matrix(4.37114e-08 1 1 -4.37114e-08 16 10.5)" stroke="#808080" stroke-width="2" stroke-linecap="round" stroke-linejoin="round"/>
</g>
</g>
<rect x="-120.5" y="-30.5" width="429" height="383" rx="4.5" stroke="#9747FF" stroke-dasharray="10 5"/>
<defs>
<filter id="filter0_d_0_1" x="-143" y="-21" width="475.59" height="91" filterUnits="userSpaceOnUse" color-interpolation-filters="sRGB">
<feFlood flood-opacity="0" result="BackgroundImageFix"/>
<feColorMatrix in="SourceAlpha" type="matrix" values="0 0 0 0 0 0 0 0 0 0 0 0 0 0 0 0 0 0 127 0" result="hardAlpha"/>
<feOffset/>
<feGaussianBlur stdDeviation="5"/>
<feComposite in2="hardAlpha" operator="out"/>
<feColorMatrix type="matrix" values="0 0 0 0 0 0 0 0 0 0 0 0 0 0 0 0 0 0 0.05 0"/>
<feBlend mode="normal" in2="BackgroundImageFix" result="effect1_dropShadow_0_1"/>
<feBlend mode="normal" in="SourceGraphic" in2="effect1_dropShadow_0_1" result="shape"/>
</filter>
<clipPath id="clip0_0_1">
<rect x="-121" y="-31" width="430" height="384" rx="5" fill="white"/>
</clipPath>
</defs>
</svg>
