<svg width="44" height="55" viewBox="0 0 44 55" fill="none" xmlns="http://www.w3.org/2000/svg">
<path d="M32 9H33C33 8.44772 32.5523 8 32 8V9ZM32 36C32.5523 36 33 35.5523 33 35C33 34.4477 32.5523 34 32 34V36ZM32 30.5V31.5C32.5523 31.5 33 31.0523 33 30.5H32ZM14 10H32V8H14V10ZM31 9V30.5H33V9H31ZM13 33V11H11V33H13ZM32 29.5H14V31.5H32V29.5ZM11 32.5V33H13V32.5H11ZM14 36H32V34H14V36ZM11 33C11 34.6569 12.3431 36 14 36V34C13.4477 34 13 33.5523 13 33H11ZM14 29.5C12.3431 29.5 11 30.8431 11 32.5H13C13 31.9477 13.4477 31.5 14 31.5V29.5ZM14 8C12.3431 8 11 9.34314 11 11H13C13 10.4477 13.4477 10 14 10V8Z" fill="#808080"/>
<path d="M16.6184 42.73C16.7118 42.73 16.7951 42.7533 16.8684 42.8C16.9484 42.8467 16.9884 42.9267 16.9884 43.04V44.7C16.9884 44.92 17.0018 45.1167 17.0284 45.29C17.0551 45.4633 17.0984 45.6267 17.1584 45.78C17.2251 45.9333 17.3084 46.0833 17.4084 46.23C17.5151 46.3767 17.6484 46.5333 17.8084 46.7C18.0284 46.9333 18.2418 47.1533 18.4484 47.36C18.6618 47.5667 18.8651 47.7567 19.0584 47.93C19.1318 47.99 19.1618 48.0667 19.1484 48.16C19.1418 48.2467 19.1084 48.3233 19.0484 48.39C18.9951 48.4433 18.9251 48.48 18.8384 48.5C18.7518 48.5133 18.6718 48.4833 18.5984 48.41C18.4251 48.2567 18.2451 48.09 18.0584 47.91C17.8718 47.7233 17.6684 47.52 17.4484 47.3C17.2884 47.1333 17.1584 46.99 17.0584 46.87C16.9584 46.75 16.8784 46.6467 16.8184 46.56C16.7584 46.4733 16.7118 46.3967 16.6784 46.33C16.6518 46.2633 16.6351 46.2033 16.6284 46.15H16.6184C16.6051 46.21 16.5818 46.2733 16.5484 46.34C16.5218 46.4 16.4784 46.4767 16.4184 46.57C16.3584 46.6567 16.2784 46.76 16.1784 46.88C16.0784 47 15.9484 47.1433 15.7884 47.31C15.5684 47.53 15.3584 47.74 15.1584 47.94C14.9584 48.1333 14.7451 48.3333 14.5184 48.54C14.4384 48.6133 14.3518 48.64 14.2584 48.62C14.1718 48.6 14.1018 48.56 14.0484 48.5C13.9884 48.4267 13.9551 48.35 13.9484 48.27C13.9418 48.1833 13.9751 48.1067 14.0484 48.04C14.2884 47.82 14.5218 47.6 14.7484 47.38C14.9751 47.16 15.1984 46.9333 15.4184 46.7C15.5784 46.5333 15.7084 46.3767 15.8084 46.23C15.9151 46.0833 16.0018 45.9333 16.0684 45.78C16.1351 45.6267 16.1818 45.4633 16.2084 45.29C16.2351 45.1167 16.2484 44.92 16.2484 44.7V43.04C16.2484 42.9267 16.2851 42.8467 16.3584 42.8C16.4318 42.7533 16.5184 42.73 16.6184 42.73ZM20.8984 42.26C20.9918 42.26 21.0751 42.2833 21.1484 42.33C21.2218 42.3767 21.2584 42.4533 21.2584 42.56V50.52C21.2584 50.6267 21.2218 50.7033 21.1484 50.75C21.0751 50.7967 20.9918 50.82 20.8984 50.82C20.8051 50.82 20.7218 50.7967 20.6484 50.75C20.5751 50.7033 20.5384 50.6267 20.5384 50.52V45.65H18.7484C18.6618 45.65 18.5984 45.62 18.5584 45.56C18.5184 45.5 18.4984 45.4233 18.4984 45.33C18.4984 45.2433 18.5184 45.17 18.5584 45.11C18.5984 45.05 18.6618 45.02 18.7484 45.02H20.5384V42.56C20.5384 42.4533 20.5751 42.3767 20.6484 42.33C20.7218 42.2833 20.8051 42.26 20.8984 42.26ZM27.02 43.04C27.1133 43.04 27.18 43.07 27.22 43.13C27.26 43.19 27.28 43.2667 27.28 43.36C27.28 43.4467 27.26 43.5233 27.22 43.59C27.18 43.65 27.1133 43.68 27.02 43.68H25.54V44.82C25.54 45.0333 25.55 45.2267 25.57 45.4C25.59 45.5667 25.6233 45.7233 25.67 45.87C25.7233 46.01 25.79 46.1467 25.87 46.28C25.9567 46.4133 26.06 46.55 26.18 46.69C26.3733 46.9233 26.56 47.14 26.74 47.34C26.9267 47.5333 27.0933 47.7067 27.24 47.86C27.3 47.9267 27.3267 48.0033 27.32 48.09C27.32 48.1767 27.2833 48.2533 27.21 48.32C27.15 48.38 27.0767 48.4167 26.99 48.43C26.91 48.4367 26.8333 48.4033 26.76 48.33C26.66 48.2233 26.5233 48.08 26.35 47.9C26.1833 47.72 26.0133 47.5267 25.84 47.32C25.6 47.04 25.4333 46.8233 25.34 46.67C25.2533 46.5167 25.2033 46.3833 25.19 46.27H25.18C25.16 46.3833 25.1033 46.5233 25.01 46.69C24.9233 46.85 24.76 47.0667 24.52 47.34C24.3467 47.5467 24.1667 47.7467 23.98 47.94C23.8 48.1333 23.6233 48.3167 23.45 48.49C23.3767 48.5633 23.2933 48.5933 23.2 48.58C23.1133 48.5667 23.0433 48.5333 22.99 48.48C22.9233 48.4133 22.8833 48.3367 22.87 48.25C22.8633 48.1633 22.8967 48.0833 22.97 48.01C23.17 47.8033 23.3733 47.59 23.58 47.37C23.7867 47.15 23.9867 46.9233 24.18 46.69C24.3 46.55 24.4 46.4133 24.48 46.28C24.56 46.1467 24.6233 46.01 24.67 45.87C24.7233 45.7233 24.76 45.5667 24.78 45.4C24.8067 45.2267 24.82 45.0333 24.82 44.82V43.68H23.26C23.1733 43.68 23.11 43.65 23.07 43.59C23.03 43.5233 23.01 43.4467 23.01 43.36C23.01 43.2667 23.03 43.19 23.07 43.13C23.11 43.07 23.1733 43.04 23.26 43.04H27.02ZM30.24 42.26C30.3333 42.26 30.4133 42.2833 30.48 42.33C30.5533 42.3767 30.59 42.45 30.59 42.55V50.53C30.59 50.63 30.5533 50.7033 30.48 50.75C30.4133 50.7967 30.3333 50.82 30.24 50.82C30.1533 50.82 30.0733 50.7967 30 50.75C29.9333 50.7033 29.9 50.63 29.9 50.53V46.03H28.57V50.11C28.57 50.21 28.5333 50.2833 28.46 50.33C28.3933 50.3767 28.3133 50.4 28.22 50.4C28.1333 50.4 28.0533 50.3767 27.98 50.33C27.9133 50.2833 27.88 50.21 27.88 50.11V42.65C27.88 42.55 27.9133 42.4767 27.98 42.43C28.0533 42.3833 28.1333 42.36 28.22 42.36C28.3133 42.36 28.3933 42.3833 28.46 42.43C28.5333 42.4767 28.57 42.55 28.57 42.65V45.4H29.9V42.55C29.9 42.45 29.9333 42.3767 30 42.33C30.0733 42.2833 30.1533 42.26 30.24 42.26Z" fill="#808080"/>
</svg>
