<svg width="44" height="44" viewBox="0 0 44 44" fill="none" xmlns="http://www.w3.org/2000/svg">
<path d="M32 9H33C33 8.44772 32.5523 8 32 8V9ZM32 36C32.5523 36 33 35.5523 33 35C33 34.4477 32.5523 34 32 34V36ZM32 30.5V31.5C32.5523 31.5 33 31.0523 33 30.5H32ZM14 10H32V8H14V10ZM31 9V30.5H33V9H31ZM13 33V11H11V33H13ZM32 29.5H14V31.5H32V29.5ZM11 32.5V33H13V32.5H11ZM14 36H32V34H14V36ZM11 33C11 34.6569 12.3431 36 14 36V34C13.4477 34 13 33.5523 13 33H11ZM14 29.5C12.3431 29.5 11 30.8431 11 32.5H13C13 31.9477 13.4477 31.5 14 31.5V29.5ZM14 8C12.3431 8 11 9.34314 11 11H13C13 10.4477 13.4477 10 14 10V8Z" fill="#808080"/>
</svg>
