<svg width="44" height="55" viewBox="0 0 44 55" fill="none" xmlns="http://www.w3.org/2000/svg">
<path d="M34.2567 18.9621L23.2567 10.0775C22.5235 9.48535 21.4765 9.48535 20.7433 10.0775L9.74333 18.9621C9.27322 19.3418 9 19.9137 9 20.518V33.0625C9 34.1671 9.89543 35.0625 11 35.0625H33C34.1046 35.0625 35 34.1671 35 33.0625V20.518C35 19.9137 34.7268 19.3418 34.2567 18.9621Z" fill="#FFD747" stroke="#FFD747" stroke-width="2" stroke-linejoin="round"/>
<path d="M21.9992 41.9275C22.0926 41.9275 22.1759 41.9508 22.2492 41.9975C22.3292 42.0442 22.3692 42.1208 22.3692 42.2275V42.8875H25.2092C25.2892 42.8875 25.3492 42.9175 25.3892 42.9775C25.4292 43.0375 25.4492 43.1075 25.4492 43.1875C25.4492 43.2675 25.4292 43.3375 25.3892 43.3975C25.3492 43.4575 25.2892 43.4875 25.2092 43.4875H18.7892C18.7092 43.4875 18.6492 43.4575 18.6092 43.3975C18.5692 43.3375 18.5492 43.2675 18.5492 43.1875C18.5492 43.1075 18.5692 43.0375 18.6092 42.9775C18.6492 42.9175 18.7092 42.8875 18.7892 42.8875H21.6292V42.2275C21.6292 42.1208 21.6659 42.0442 21.7392 41.9975C21.8192 41.9508 21.9059 41.9275 21.9992 41.9275ZM21.9992 44.0575C22.8326 44.0575 23.4792 44.1608 23.9392 44.3675C24.4059 44.5675 24.6392 44.8875 24.6392 45.3275C24.6392 45.7675 24.4059 46.0908 23.9392 46.2975C23.4792 46.5042 22.8326 46.6075 21.9992 46.6075C21.1659 46.6075 20.5159 46.5042 20.0492 46.2975C19.5892 46.0908 19.3592 45.7675 19.3592 45.3275C19.3592 44.8875 19.5892 44.5675 20.0492 44.3675C20.5159 44.1608 21.1659 44.0575 21.9992 44.0575ZM21.9992 44.6175C20.7126 44.6175 20.0692 44.8542 20.0692 45.3275C20.0692 45.8008 20.7126 46.0375 21.9992 46.0375C23.2859 46.0375 23.9292 45.8008 23.9292 45.3275C23.9292 44.8542 23.2859 44.6175 21.9992 44.6175ZM22.3592 47.3975H25.9292C26.0092 47.3975 26.0692 47.4275 26.1092 47.4875C26.1492 47.5475 26.1692 47.6175 26.1692 47.6975C26.1692 47.7708 26.1492 47.8375 26.1092 47.8975C26.0692 47.9575 26.0092 47.9875 25.9292 47.9875H18.0692C17.9892 47.9875 17.9292 47.9575 17.8892 47.8975C17.8492 47.8375 17.8292 47.7708 17.8292 47.6975C17.8292 47.6175 17.8492 47.5475 17.8892 47.4875C17.9292 47.4275 17.9892 47.3975 18.0692 47.3975H21.6392V46.3375H22.3592V47.3975ZM24.2492 48.7375C24.5092 48.7375 24.6892 48.7875 24.7892 48.8875C24.8892 48.9808 24.9392 49.1542 24.9392 49.4075V50.6375C24.9392 50.8908 24.8892 51.0642 24.7892 51.1575C24.6892 51.2575 24.5092 51.3075 24.2492 51.3075H19.7492C19.4892 51.3075 19.3092 51.2575 19.2092 51.1575C19.1092 51.0642 19.0592 50.8908 19.0592 50.6375V49.4075C19.0592 49.1542 19.1092 48.9808 19.2092 48.8875C19.3092 48.7875 19.4892 48.7375 19.7492 48.7375H24.2492ZM19.9592 49.3275C19.8326 49.3275 19.7692 49.3875 19.7692 49.5075V50.5375C19.7692 50.6642 19.8326 50.7275 19.9592 50.7275H24.0392C24.1659 50.7275 24.2292 50.6642 24.2292 50.5375V49.5075C24.2292 49.3875 24.1659 49.3275 24.0392 49.3275H19.9592Z" fill="#333333"/>
</svg>
