<svg width="44" height="45" viewBox="0 0 44 45" fill="none" xmlns="http://www.w3.org/2000/svg">
<path d="M32 9.5H14C12.8954 9.5 12 10.3954 12 11.5V33C12 31.8954 12.8954 31 14 31H32V9.5Z" fill="#FFD747"/>
<path d="M32 9.5H33C33 8.94772 32.5523 8.5 32 8.5V9.5ZM32 31V32C32.5523 32 33 31.5523 33 31H32ZM32 36.5C32.5523 36.5 33 36.0523 33 35.5C33 34.9477 32.5523 34.5 32 34.5V36.5ZM14 10.5H32V8.5H14V10.5ZM31 9.5V31H33V9.5H31ZM13 33.5V33H11V33.5H13ZM13 33V11.5H11V33H13ZM32 30H14V32H32V30ZM14 36.5H32V34.5H14V36.5ZM11 33.5C11 35.1569 12.3431 36.5 14 36.5V34.5C13.4477 34.5 13 34.0523 13 33.5H11ZM14 30C12.3431 30 11 31.3431 11 33H13C13 32.4477 13.4477 32 14 32V30ZM14 8.5C12.3431 8.5 11 9.84314 11 11.5H13C13 10.9477 13.4477 10.5 14 10.5V8.5Z" fill="#FFD747"/>
</svg>
