<svg width="44" height="55" viewBox="0 0 44 55" fill="none" xmlns="http://www.w3.org/2000/svg">
<path d="M34.2567 19.0246L23.2567 10.14C22.5235 9.54785 21.4765 9.54785 20.7433 10.14L9.74333 19.0246C9.27322 19.4043 9 19.9762 9 20.5805V33.125C9 34.2296 9.89543 35.125 11 35.125H33C34.1046 35.125 35 34.2296 35 33.125V20.5805C35 19.9762 34.7268 19.4043 34.2567 19.0246Z" stroke="#808080" stroke-width="2" stroke-linejoin="round"/>
<path d="M21.9992 41.865C22.0926 41.865 22.1759 41.8883 22.2492 41.935C22.3292 41.9817 22.3692 42.0583 22.3692 42.165V42.825H25.2092C25.2892 42.825 25.3492 42.855 25.3892 42.915C25.4292 42.975 25.4492 43.045 25.4492 43.125C25.4492 43.205 25.4292 43.275 25.3892 43.335C25.3492 43.395 25.2892 43.425 25.2092 43.425H18.7892C18.7092 43.425 18.6492 43.395 18.6092 43.335C18.5692 43.275 18.5492 43.205 18.5492 43.125C18.5492 43.045 18.5692 42.975 18.6092 42.915C18.6492 42.855 18.7092 42.825 18.7892 42.825H21.6292V42.165C21.6292 42.0583 21.6659 41.9817 21.7392 41.935C21.8192 41.8883 21.9059 41.865 21.9992 41.865ZM21.9992 43.995C22.8326 43.995 23.4792 44.0983 23.9392 44.305C24.4059 44.505 24.6392 44.825 24.6392 45.265C24.6392 45.705 24.4059 46.0283 23.9392 46.235C23.4792 46.4417 22.8326 46.545 21.9992 46.545C21.1659 46.545 20.5159 46.4417 20.0492 46.235C19.5892 46.0283 19.3592 45.705 19.3592 45.265C19.3592 44.825 19.5892 44.505 20.0492 44.305C20.5159 44.0983 21.1659 43.995 21.9992 43.995ZM21.9992 44.555C20.7126 44.555 20.0692 44.7917 20.0692 45.265C20.0692 45.7383 20.7126 45.975 21.9992 45.975C23.2859 45.975 23.9292 45.7383 23.9292 45.265C23.9292 44.7917 23.2859 44.555 21.9992 44.555ZM22.3592 47.335H25.9292C26.0092 47.335 26.0692 47.365 26.1092 47.425C26.1492 47.485 26.1692 47.555 26.1692 47.635C26.1692 47.7083 26.1492 47.775 26.1092 47.835C26.0692 47.895 26.0092 47.925 25.9292 47.925H18.0692C17.9892 47.925 17.9292 47.895 17.8892 47.835C17.8492 47.775 17.8292 47.7083 17.8292 47.635C17.8292 47.555 17.8492 47.485 17.8892 47.425C17.9292 47.365 17.9892 47.335 18.0692 47.335H21.6392V46.275H22.3592V47.335ZM24.2492 48.675C24.5092 48.675 24.6892 48.725 24.7892 48.825C24.8892 48.9183 24.9392 49.0917 24.9392 49.345V50.575C24.9392 50.8283 24.8892 51.0017 24.7892 51.095C24.6892 51.195 24.5092 51.245 24.2492 51.245H19.7492C19.4892 51.245 19.3092 51.195 19.2092 51.095C19.1092 51.0017 19.0592 50.8283 19.0592 50.575V49.345C19.0592 49.0917 19.1092 48.9183 19.2092 48.825C19.3092 48.725 19.4892 48.675 19.7492 48.675H24.2492ZM19.9592 49.265C19.8326 49.265 19.7692 49.325 19.7692 49.445V50.475C19.7692 50.6017 19.8326 50.665 19.9592 50.665H24.0392C24.1659 50.665 24.2292 50.6017 24.2292 50.475V49.445C24.2292 49.325 24.1659 49.265 24.0392 49.265H19.9592Z" fill="#808080"/>
</svg>
