<svg width="44" height="55" viewBox="0 0 44 55" fill="none" xmlns="http://www.w3.org/2000/svg">
<path d="M24 33.125H13C11.8954 33.125 10.981 32.2216 11.1795 31.1351C12.116 26.0098 16.6043 22.125 22 22.125C27.3957 22.125 31.884 26.0098 32.8205 31.1351C33.019 32.2216 32.1046 33.125 31 33.125H29" stroke="#808080" stroke-width="2" stroke-linecap="round" stroke-linejoin="round"/>
<circle cx="6" cy="6" r="6" transform="matrix(4.37114e-08 1 1 -4.37114e-08 16 10.125)" stroke="#808080" stroke-width="2" stroke-linecap="round" stroke-linejoin="round"/>
<path d="M15.8977 42.815C15.9777 42.815 16.0377 42.845 16.0777 42.905C16.1177 42.965 16.1377 43.0383 16.1377 43.125C16.1377 43.2117 16.1177 43.285 16.0777 43.345C16.0377 43.405 15.9777 43.435 15.8977 43.435H14.7577V46.545H15.9477C16.0343 46.545 16.0977 46.575 16.1377 46.635C16.1777 46.695 16.1977 46.7683 16.1977 46.855C16.1977 46.9417 16.1777 47.015 16.1377 47.075C16.0977 47.135 16.0343 47.165 15.9477 47.165H9.84766C9.76099 47.165 9.69766 47.135 9.65766 47.075C9.61766 47.015 9.59766 46.9417 9.59766 46.855C9.59766 46.7683 9.61766 46.695 9.65766 46.635C9.69766 46.575 9.76099 46.545 9.84766 46.545H11.0377V43.435H9.89766C9.81766 43.435 9.75766 43.405 9.71766 43.345C9.67766 43.285 9.65766 43.2117 9.65766 43.125C9.65766 43.0383 9.67766 42.965 9.71766 42.905C9.75766 42.845 9.81766 42.815 9.89766 42.815H15.8977ZM14.0477 46.545V43.435H11.7477V46.545H14.0477ZM16.8077 49.125C16.901 49.125 16.9677 49.1583 17.0077 49.225C17.0477 49.285 17.0677 49.3617 17.0677 49.455C17.0677 49.5417 17.0477 49.615 17.0077 49.675C16.9677 49.735 16.901 49.765 16.8077 49.765H8.98766C8.89432 49.765 8.82766 49.735 8.78766 49.675C8.74766 49.615 8.72766 49.5417 8.72766 49.455C8.72766 49.3617 8.74766 49.285 8.78766 49.225C8.82766 49.1583 8.89432 49.125 8.98766 49.125H16.8077ZM24.2492 42.675C24.5092 42.675 24.6892 42.725 24.7892 42.825C24.8892 42.9183 24.9392 43.0917 24.9392 43.345V44.645C24.9392 44.8983 24.8892 45.075 24.7892 45.175C24.6892 45.2683 24.5092 45.315 24.2492 45.315H19.9592C19.8326 45.315 19.7692 45.3783 19.7692 45.505V46.555C19.7692 46.675 19.8326 46.735 19.9592 46.735H24.9292C25.0159 46.735 25.0792 46.765 25.1192 46.825C25.1592 46.885 25.1792 46.9583 25.1792 47.045C25.1792 47.1317 25.1592 47.2083 25.1192 47.275C25.0792 47.335 25.0159 47.365 24.9292 47.365H19.7392C19.4792 47.365 19.2992 47.3183 19.1992 47.225C19.0992 47.125 19.0492 46.9483 19.0492 46.695V45.385C19.0492 45.1317 19.0992 44.9583 19.1992 44.865C19.2992 44.765 19.4792 44.715 19.7392 44.715H24.0392C24.1659 44.715 24.2292 44.6517 24.2292 44.525V43.485C24.2292 43.3583 24.1659 43.295 24.0392 43.295H19.2792C19.1926 43.295 19.1292 43.265 19.0892 43.205C19.0492 43.145 19.0292 43.0717 19.0292 42.985C19.0292 42.8983 19.0492 42.825 19.0892 42.765C19.1292 42.705 19.1926 42.675 19.2792 42.675H24.2492ZM22.3692 49.135H25.9092C26.0026 49.135 26.0692 49.165 26.1092 49.225C26.1492 49.285 26.1692 49.3617 26.1692 49.455C26.1692 49.5417 26.1492 49.615 26.1092 49.675C26.0692 49.735 26.0026 49.765 25.9092 49.765H18.0892C17.9959 49.765 17.9292 49.735 17.8892 49.675C17.8492 49.615 17.8292 49.5417 17.8292 49.455C17.8292 49.3617 17.8492 49.285 17.8892 49.225C17.9292 49.165 17.9959 49.135 18.0892 49.135H21.6392V47.025H22.3692V49.135ZM32.1608 42.605C32.2541 42.605 32.3208 42.6383 32.3608 42.705C32.4008 42.765 32.4208 42.835 32.4208 42.915C32.4208 42.995 32.4008 43.065 32.3608 43.125C32.3208 43.185 32.2541 43.215 32.1608 43.215H31.4008V45.745C31.7408 45.7183 32.0808 45.6783 32.4208 45.625C32.5874 45.605 32.6874 45.6883 32.7208 45.875C32.7341 45.9617 32.7208 46.0417 32.6808 46.115C32.6474 46.1817 32.5908 46.2217 32.5108 46.235C32.1708 46.2817 31.8174 46.3217 31.4508 46.355C31.0841 46.3817 30.6941 46.405 30.2808 46.425C29.8741 46.4383 29.4341 46.4483 28.9608 46.455C28.4941 46.4617 27.9841 46.465 27.4308 46.465C27.3374 46.465 27.2708 46.435 27.2308 46.375C27.1908 46.315 27.1708 46.245 27.1708 46.165C27.1708 46.085 27.1908 46.015 27.2308 45.955C27.2708 45.8883 27.3374 45.855 27.4308 45.855H28.2908V43.215H27.5008C27.4141 43.215 27.3508 43.185 27.3108 43.125C27.2708 43.065 27.2508 42.995 27.2508 42.915C27.2508 42.835 27.2708 42.765 27.3108 42.705C27.3508 42.6383 27.4141 42.605 27.5008 42.605H32.1608ZM28.9908 45.855C29.5908 45.8483 30.1608 45.8283 30.7008 45.795V43.215H28.9908V45.855ZM33.9808 42.135C34.0741 42.135 34.1574 42.1583 34.2308 42.205C34.3108 42.2517 34.3508 42.3283 34.3508 42.435V46.575C34.3508 46.6817 34.3108 46.7583 34.2308 46.805C34.1574 46.8517 34.0741 46.875 33.9808 46.875C33.8874 46.875 33.8041 46.8517 33.7308 46.805C33.6574 46.7583 33.6208 46.6817 33.6208 46.575V42.435C33.6208 42.3283 33.6574 42.2517 33.7308 42.205C33.8041 42.1583 33.8874 42.135 33.9808 42.135ZM33.6608 47.375C33.9208 47.375 34.1008 47.425 34.2008 47.525C34.3008 47.6183 34.3508 47.7917 34.3508 48.045V48.935C34.3508 49.1883 34.3008 49.365 34.2008 49.465C34.1008 49.5583 33.9208 49.605 33.6608 49.605H29.6008C29.5274 49.605 29.4774 49.6183 29.4508 49.645C29.4241 49.665 29.4108 49.7117 29.4108 49.785V50.465C29.4108 50.5917 29.4741 50.655 29.6008 50.655H34.3508C34.4308 50.655 34.4908 50.685 34.5308 50.745C34.5708 50.805 34.5908 50.875 34.5908 50.955C34.5908 51.035 34.5708 51.105 34.5308 51.165C34.4908 51.225 34.4308 51.255 34.3508 51.255H29.3908C29.1308 51.255 28.9508 51.205 28.8508 51.105C28.7508 51.0117 28.7008 50.8383 28.7008 50.585V49.685C28.7008 49.4317 28.7508 49.2583 28.8508 49.165C28.9508 49.065 29.1308 49.015 29.3908 49.015H33.4508C33.5241 49.015 33.5741 49.005 33.6008 48.985C33.6274 48.9583 33.6408 48.9083 33.6408 48.835V48.155C33.6408 48.035 33.5774 47.975 33.4508 47.975H28.9208C28.8408 47.975 28.7808 47.945 28.7408 47.885C28.7008 47.825 28.6808 47.755 28.6808 47.675C28.6808 47.595 28.7008 47.525 28.7408 47.465C28.7808 47.405 28.8408 47.375 28.9208 47.375H33.6608Z" fill="#808080"/>
</svg>
