<svg width="44" height="44" viewBox="0 0 44 44" fill="none" xmlns="http://www.w3.org/2000/svg">
<g filter="url(#filter0_d_2441_2852)">
<path d="M14.2426 16.8466C14.3227 15.8046 15.1916 15 16.2367 15H27.7633C28.8084 15 29.6773 15.8046 29.7574 16.8466L30.8344 30.8466C30.9237 32.0082 30.0053 33 28.8402 33H15.1598C13.9947 33 13.0763 32.0082 13.1656 30.8466L14.2426 16.8466Z" stroke="#333333" stroke-width="2" stroke-linejoin="round"/>
<path d="M19 23.3333L21.4 26L25 22" stroke="#333333" stroke-width="2" stroke-linecap="round" stroke-linejoin="round"/>
<path d="M26 15C26 13.9391 25.5786 12.9217 24.8284 12.1716C24.0783 11.4214 23.0609 11 22 11C20.9391 11 19.9217 11.4214 19.1716 12.1716C18.4214 12.9217 18 13.9391 18 15" stroke="#333333" stroke-width="2"/>
</g>
<defs>
<filter id="filter0_d_2441_2852" x="8.16016" y="10" width="27.6797" height="32" filterUnits="userSpaceOnUse" color-interpolation-filters="sRGB">
<feFlood flood-opacity="0" result="BackgroundImageFix"/>
<feColorMatrix in="SourceAlpha" type="matrix" values="0 0 0 0 0 0 0 0 0 0 0 0 0 0 0 0 0 0 127 0" result="hardAlpha"/>
<feOffset dy="4"/>
<feGaussianBlur stdDeviation="2"/>
<feComposite in2="hardAlpha" operator="out"/>
<feColorMatrix type="matrix" values="0 0 0 0 0 0 0 0 0 0 0 0 0 0 0 0 0 0 0.25 0"/>
<feBlend mode="normal" in2="BackgroundImageFix" result="effect1_dropShadow_2441_2852"/>
<feBlend mode="normal" in="SourceGraphic" in2="effect1_dropShadow_2441_2852" result="shape"/>
</filter>
</defs>
</svg>
