<svg width="22" height="9" viewBox="0 0 22 9" fill="none" xmlns="http://www.w3.org/2000/svg">
<path d="M5.73875 0.6C5.92008 0.6 6.05342 0.664 6.13875 0.792C6.23475 0.92 6.28275 1.08 6.28275 1.272C6.28275 1.45333 6.23475 1.61333 6.13875 1.752C6.05342 1.88 5.92008 1.944 5.73875 1.944H1.46675C1.27475 1.944 1.13075 1.88 1.03475 1.752C0.949417 1.61333 0.90675 1.45333 0.90675 1.272C0.90675 1.08 0.949417 0.92 1.03475 0.792C1.13075 0.664 1.27475 0.6 1.46675 0.6H5.73875ZM14.5204 7.592C14.6804 7.592 14.7977 7.64533 14.8724 7.752C14.9577 7.85867 15.0004 8.00267 15.0004 8.184C15.0004 8.33333 14.9577 8.46133 14.8724 8.568C14.7977 8.67467 14.6804 8.728 14.5204 8.728H7.48038C7.32038 8.728 7.19771 8.67467 7.11238 8.568C7.03771 8.46133 7.00038 8.33333 7.00038 8.184C7.00038 8.00267 7.03771 7.85867 7.11238 7.752C7.19771 7.64533 7.32038 7.592 7.48038 7.592H14.5204ZM20.5356 0.6C20.717 0.6 20.8503 0.664 20.9356 0.792C21.0316 0.92 21.0796 1.08 21.0796 1.272C21.0796 1.45333 21.0316 1.61333 20.9356 1.752C20.8503 1.88 20.717 1.944 20.5356 1.944H16.2636C16.0716 1.944 15.9276 1.88 15.8316 1.752C15.7463 1.61333 15.7036 1.45333 15.7036 1.272C15.7036 1.08 15.7463 0.92 15.8316 0.792C15.9276 0.664 16.0716 0.6 16.2636 0.6H20.5356Z" fill="black"/>
</svg>
