<svg width="24" height="24" viewBox="0 0 24 24" fill="none" xmlns="http://www.w3.org/2000/svg">
<path d="M10.6318 18.9938H6.37322C5.04811 18.9938 3.97266 17.9165 3.97266 16.589V6.40478C3.97266 5.07734 5.04811 4 6.37322 4H13.923C15.2481 4 16.3236 5.07734 16.3236 6.40478V11.4981" stroke="white" stroke-width="1.20239" stroke-linecap="round" stroke-linejoin="round"/>
<path d="M6.59766 7.71875H13.3168" stroke="white" stroke-width="1.20239" stroke-linecap="round" stroke-linejoin="round"/>
<path d="M6.59766 11.2969H13.3168" stroke="white" stroke-width="1.20239" stroke-linecap="round" stroke-linejoin="round"/>
<path d="M6.59766 14.877H11.1731" stroke="white" stroke-width="1.20239" stroke-linecap="round" stroke-linejoin="round"/>
<path d="M19.5937 15.1348L14.7709 19.966C13.8995 20.1488 13.0257 20.3315 12.1543 20.5143C12.3751 19.6798 12.596 18.843 12.8169 18.0085L17.6396 13.1773C18.1797 12.6362 19.0535 12.6362 19.5937 13.1773C20.1338 13.7184 20.1338 14.5937 19.5937 15.1348Z" stroke="white" stroke-width="1.18556" stroke-linecap="round" stroke-linejoin="round"/>
</svg>
