<svg width="10" height="10" viewBox="0 0 10 10" fill="none" xmlns="http://www.w3.org/2000/svg">
<path d="M5.00065 0.833984C7.3019 0.833984 9.16732 2.6994 9.16732 5.00065C9.16732 7.3019 7.3019 9.16732 5.00065 9.16732C2.6994 9.16732 0.833984 7.3019 0.833984 5.00065C0.833984 2.6994 2.6994 0.833984 5.00065 0.833984ZM4.99648 4.16732H4.58398C4.47778 4.16744 4.37564 4.2081 4.29841 4.281C4.22119 4.35391 4.17472 4.45355 4.1685 4.55957C4.16227 4.66558 4.19677 4.76998 4.26493 4.85141C4.33309 4.93285 4.42978 4.98519 4.53523 4.99773L4.58398 5.00065V7.07982C4.58398 7.29648 4.74815 7.47565 4.95898 7.49815L5.00482 7.50065H5.20898C5.29661 7.50065 5.38201 7.47303 5.45304 7.4217C5.52407 7.37037 5.5771 7.29796 5.60461 7.21476C5.63211 7.13156 5.63268 7.0418 5.60624 6.95825C5.57979 6.87471 5.52768 6.80163 5.45732 6.7494L5.41732 6.72315V4.58815C5.41732 4.37148 5.25315 4.19232 5.04232 4.16982L4.99648 4.16732ZM5.00065 2.91732C4.89014 2.91732 4.78416 2.96122 4.70602 3.03936C4.62788 3.1175 4.58398 3.22348 4.58398 3.33398C4.58398 3.44449 4.62788 3.55047 4.70602 3.62861C4.78416 3.70675 4.89014 3.75065 5.00065 3.75065C5.11116 3.75065 5.21714 3.70675 5.29528 3.62861C5.37342 3.55047 5.41732 3.44449 5.41732 3.33398C5.41732 3.22348 5.37342 3.1175 5.29528 3.03936C5.21714 2.96122 5.11116 2.91732 5.00065 2.91732Z" fill="#63B865"/>
</svg>
