<svg width="44" height="44" viewBox="0 0 44 44" fill="none" xmlns="http://www.w3.org/2000/svg">
<path fill-rule="evenodd" clip-rule="evenodd" d="M23.885 12.6515C22.7853 11.7828 21.2147 11.7828 20.115 12.6515L13.115 18.1804C12.4098 18.7374 12 19.5763 12 20.4627V28.0663C12 29.6865 13.3431 31 15 31H29C30.6569 31 32 29.6865 32 28.0663V20.4627C32 19.5763 31.5902 18.7374 30.885 18.1804L23.885 12.6515Z" fill="#63B865"/>
<path fill-rule="evenodd" clip-rule="evenodd" d="M23 18.4297C23 17.8774 22.5523 17.4297 22 17.4297C21.4477 17.4297 21 17.8774 21 18.4297V22.4297H17C16.4477 22.4297 16 22.8774 16 23.4297C16 23.982 16.4477 24.4297 17 24.4297H21V28.4297C21 28.982 21.4477 29.4297 22 29.4297C22.5523 29.4297 23 28.982 23 28.4297V24.4297H27C27.5523 24.4297 28 23.982 28 23.4297C28 22.8774 27.5523 22.4297 27 22.4297H23V18.4297Z" fill="#FAF9F7"/>
</svg>
