<svg xmlns="http://www.w3.org/2000/svg" width="20" height="18" viewBox="0 0 20 18" fill="none">
  <path d="M11.1649 12.3448V14.5798C11.1649 15.322 10.5629 15.9239 9.82078 15.9239H3.15845C2.41629 15.9239 1.81436 15.322 1.81436 14.5798V3.15845C1.81436 2.41629 2.41629 1.81436 3.15845 1.81436H9.82078C10.5629 1.81436 11.1649 2.41629 11.1649 3.15845V5.39348C11.1649 5.89452 11.5702 6.2998 12.0712 6.2998C12.5722 6.2998 12.9775 5.89452 12.9775 5.39348V3.15845C12.9775 1.41421 11.5633 0 9.81907 0H3.15845C1.41421 0 0 1.41421 0 3.15845V14.5815C0 16.3258 1.41421 17.74 3.15845 17.74H9.82078C11.565 17.74 12.9792 16.3258 12.9792 14.5815V12.3465C12.9792 11.8455 12.574 11.4402 12.0729 11.4402C11.5719 11.4402 11.1666 11.8455 11.1666 12.3465L11.1649 12.3448Z" fill="#666666"/>
  <path d="M19.7004 7.99489L17.4141 5.71027C17.0139 5.31012 16.3641 5.31012 15.9623 5.71027C15.5621 6.11042 15.5621 6.76024 15.9623 7.1621L16.5317 7.73154H7.77798C7.21196 7.73154 6.75195 8.19154 6.75195 8.75757C6.75195 9.32359 7.21196 9.78359 7.77798 9.78359H16.5317L15.9605 10.353C15.5604 10.7532 15.5604 11.403 15.9605 11.8049C16.1606 12.0049 16.424 12.1058 16.6856 12.1058C16.9472 12.1058 17.2106 12.0049 17.4107 11.8049L19.697 9.52025C19.9073 9.30991 20.0031 9.03288 19.9945 8.75757C20.0048 8.48225 19.9073 8.20522 19.697 7.99489H19.7004Z" fill="#666666"/>
</svg>