<svg width="22" height="22" viewBox="0 0 22 22" fill="none" xmlns="http://www.w3.org/2000/svg">
<path d="M0 4C0 1.79086 1.79086 0 4 0H18C20.2091 0 22 1.79086 22 4V14.7C22 16.9091 20.2091 18.7 18 18.7H14.3L11.7071 21.2929C11.3166 21.6834 10.6834 21.6834 10.2929 21.2929L7.7 18.7H4C1.79086 18.7 0 16.9091 0 14.7V4Z" fill="#63B865"/>
<circle cx="7.5" cy="6.5" r="1.5" fill="#FAF9F7"/>
<circle cx="14.5" cy="6.5" r="1.5" fill="#FAF9F7"/>
<path d="M11 14C9.26122 14 8.16215 13.0773 7.55238 12.1721C7.18533 11.6271 7.64458 11 8.30161 11H13.6984C14.3554 11 14.8147 11.6271 14.4476 12.1721C13.8378 13.0773 12.7388 14 11 14Z" fill="#FAF9F7" stroke="#FAF9F7" stroke-linecap="round"/>
</svg>
