<svg width="44" height="44" viewBox="0 0 44 44" fill="none" xmlns="http://www.w3.org/2000/svg">
<path d="M11 16C11 13.7909 12.7909 12 15 12H29C31.2091 12 33 13.7909 33 16V26.7C33 28.9091 31.2091 30.7 29 30.7H25.3L22.7071 33.2929C22.3166 33.6834 21.6834 33.6834 21.2929 33.2929L18.7 30.7H15C12.7909 30.7 11 28.9091 11 26.7V16Z" fill="#63B865"/>
<circle cx="18.5" cy="18.5" r="1.5" fill="#FAF9F7"/>
<circle cx="25.5" cy="18.5" r="1.5" fill="#FAF9F7"/>
<path d="M22 26C20.2612 26 19.1622 25.0773 18.5524 24.1721C18.1853 23.6271 18.6446 23 19.3016 23H24.6984C25.3554 23 25.8147 23.6271 25.4476 24.1721C24.8378 25.0773 23.7388 26 22 26Z" fill="#FAF9F7" stroke="#FAF9F7" stroke-linecap="round"/>
</svg>
