<svg width="44" height="44" viewBox="0 0 44 44" fill="none" xmlns="http://www.w3.org/2000/svg">
<path fill-rule="evenodd" clip-rule="evenodd" d="M24.4129 30.7069C28.7701 29.6274 32 25.6909 32 21C32 15.4772 27.5228 11 22 11C16.4772 11 12 15.4772 12 21C12 25.6909 15.2299 29.6274 19.5871 30.7069C19.6167 30.8463 19.678 30.9836 19.7753 31.11L21.2076 32.9706C21.6079 33.4906 22.3921 33.4906 22.7924 32.9706L24.2247 31.11C24.322 30.9836 24.3833 30.8463 24.4129 30.7069Z" fill="#63B865"/>
<circle cx="18.5" cy="18.5" r="1.5" fill="#FAF9F7"/>
<circle cx="25.5" cy="18.5" r="1.5" fill="#FAF9F7"/>
<path d="M22 26C20.2612 26 19.1622 25.0773 18.5524 24.1721C18.1853 23.6271 18.6446 23 19.3016 23H24.6984C25.3554 23 25.8147 23.6271 25.4476 24.1721C24.8378 25.0773 23.7388 26 22 26Z" fill="#FAF9F7" stroke="#FAF9F7" stroke-linecap="round"/>
</svg>
