<svg xmlns="http://www.w3.org/2000/svg" width="14" height="14" viewBox="0 0 14 14" fill="none">
  <path d="M6.66688 1.11133C9.73522 1.11133 12.2224 3.59855 12.2224 6.66688C12.2224 9.73522 9.73522 12.2224 6.66688 12.2224C3.59855 12.2224 1.11133 9.73522 1.11133 6.66688C1.11133 3.59855 3.59855 1.11133 6.66688 1.11133ZM6.66688 2.22244C5.48814 2.22244 4.35768 2.69069 3.52419 3.52419C2.69069 4.35768 2.22244 5.48814 2.22244 6.66688C2.22244 7.84562 2.69069 8.97609 3.52419 9.80958C4.35768 10.6431 5.48814 11.1113 6.66688 11.1113C7.84562 11.1113 8.97609 10.6431 9.80958 9.80958C10.6431 8.97609 11.1113 7.84562 11.1113 6.66688C11.1113 5.48814 10.6431 4.35768 9.80958 3.52419C8.97609 2.69069 7.84562 2.22244 6.66688 2.22244ZM6.66688 3.33355C6.80296 3.33357 6.93429 3.38353 7.03598 3.47395C7.13767 3.56437 7.20263 3.68897 7.21855 3.82411L7.22244 3.88911V6.43688L8.72633 7.94077C8.82597 8.04075 8.88381 8.1749 8.88812 8.31599C8.89243 8.45707 8.84288 8.5945 8.74952 8.70037C8.65617 8.80624 8.52602 8.87261 8.38551 8.88599C8.245 8.89938 8.10466 8.85878 7.99299 8.77244L7.94077 8.72633L6.27411 7.05966C6.18776 6.97324 6.13231 6.86077 6.11633 6.73966L6.11133 6.66688V3.88911C6.11133 3.74176 6.16986 3.60046 6.27405 3.49627C6.37823 3.39208 6.51954 3.33355 6.66688 3.33355Z" fill="#666666"/>
</svg>