<svg xmlns="http://www.w3.org/2000/svg" width="12" height="12" viewBox="0 0 12 12" fill="none">
  <path d="M10.7833 5.65523L5.78333 0.65523C5.57501 0.448608 5.29341 0.332774 5 0.333008H1.11111C0.816427 0.333008 0.533811 0.450071 0.325437 0.658445C0.117063 0.866819 3.4885e-07 1.14943 3.4885e-07 1.44412V5.33301C-0.000115829 5.47963 0.0287871 5.62482 0.0850431 5.76021C0.141299 5.89561 0.223796 6.01853 0.327778 6.1219L5.32778 11.1219C5.5361 11.3285 5.8177 11.4444 6.11111 11.4441C6.40532 11.4429 6.68703 11.325 6.89445 11.1163L10.7833 7.22745C10.992 7.02004 11.1099 6.73833 11.1111 6.44412C11.1112 6.2975 11.0823 6.15231 11.0261 6.01692C10.9698 5.88152 10.8873 5.7586 10.7833 5.65523ZM6.11111 10.333L1.11111 5.33301V1.44412H5L10 6.44412M2.5 1.99967C2.66482 1.99967 2.82593 2.04855 2.96298 2.14012C3.10002 2.23168 3.20683 2.36183 3.2699 2.51411C3.33297 2.66638 3.34948 2.83393 3.31732 2.99558C3.28517 3.15723 3.2058 3.30572 3.08926 3.42226C2.97271 3.53881 2.82423 3.61818 2.66258 3.65033C2.50092 3.68248 2.33337 3.66598 2.1811 3.60291C2.02883 3.53983 1.89868 3.43302 1.80711 3.29598C1.71554 3.15894 1.66667 2.99783 1.66667 2.83301C1.66667 2.61199 1.75446 2.40003 1.91074 2.24375C2.06702 2.08747 2.27899 1.99967 2.5 1.99967Z" fill="#666666"/>
</svg>