<svg width="23" height="23" viewBox="0 0 23 23" fill="none" xmlns="http://www.w3.org/2000/svg">
<path d="M16.728 4.70508H17.428C17.428 4.31848 17.1146 4.00508 16.728 4.00508V4.70508ZM16.728 18.996C17.1146 18.996 17.428 18.6826 17.428 18.296C17.428 17.9094 17.1146 17.596 16.728 17.596V18.996ZM16.728 15.9437V16.6437C17.1146 16.6437 17.428 16.3303 17.428 15.9437H16.728ZM7.31889 5.40508H16.728V4.00508H7.31889V5.40508ZM16.028 4.70508V15.9437H17.428V4.70508H16.028ZM6.97344 17.2505V5.75053H5.57344V17.2505H6.97344ZM16.728 15.2437H7.31889V16.6437H16.728V15.2437ZM5.57344 16.9892V17.2505H6.97344V16.9892H5.57344ZM7.31889 18.996H16.728V17.596H7.31889V18.996ZM5.57344 17.2505C5.57344 18.2145 6.3549 18.996 7.31889 18.996V17.596C7.1281 17.596 6.97344 17.4413 6.97344 17.2505H5.57344ZM7.31889 15.2437C6.3549 15.2437 5.57344 16.0252 5.57344 16.9892H6.97344C6.97344 16.7984 7.1281 16.6437 7.31889 16.6437V15.2437ZM7.31889 4.00508C6.3549 4.00508 5.57344 4.78655 5.57344 5.75053H6.97344C6.97344 5.55974 7.1281 5.40508 7.31889 5.40508V4.00508Z" fill="#808080"/>
</svg>
