<svg width="16" height="16" viewBox="0 0 16 16" fill="none" xmlns="http://www.w3.org/2000/svg">
<path d="M13.8333 1H2.16667C1.85725 1 1.5605 1.12292 1.34171 1.34171C1.12292 1.5605 1 1.85725 1 2.16667V13.8333C1 14.1428 1.12292 14.4395 1.34171 14.6583C1.5605 14.8771 1.85725 15 2.16667 15H13.8333C14.1428 15 14.4395 14.8771 14.6583 14.6583C14.8771 14.4395 15 14.1428 15 13.8333V2.16667C15 1.85725 14.8771 1.5605 14.6583 1.34171C14.4395 1.12292 14.1428 1 13.8333 1Z" stroke="#B3B3B3" stroke-width="1.55556" stroke-linecap="round" stroke-linejoin="round"/>
<path d="M5.6671 7.61155C6.1828 7.61155 6.67738 7.40668 7.04203 7.04203C7.40668 6.67738 7.61155 6.1828 7.61155 5.6671C7.61155 5.1514 7.40668 4.65682 7.04203 4.29217C6.67738 3.92752 6.1828 3.72266 5.6671 3.72266C5.1514 3.72266 4.65682 3.92752 4.29217 4.29217C3.92752 4.65682 3.72266 5.1514 3.72266 5.6671C3.72266 6.1828 3.92752 6.67738 4.29217 7.04203C4.65682 7.40668 5.1514 7.61155 5.6671 7.61155ZM9.47432 8.86377C9.54802 8.7651 9.64409 8.68534 9.75464 8.63106C9.86518 8.57677 9.98704 8.54951 10.1102 8.55153C10.2333 8.55354 10.3542 8.58476 10.4629 8.64263C10.5716 8.7005 10.6651 8.78335 10.7355 8.88438L14.148 13.7778C14.5073 14.2934 14.1383 15.0004 13.5102 15.0004H4.88932L9.47432 8.86377Z" stroke="#B3B3B3" stroke-width="1.55556" stroke-linecap="round" stroke-linejoin="round"/>
</svg>
