<svg width="13" height="13" viewBox="0 0 13 13" fill="none" xmlns="http://www.w3.org/2000/svg">
<path d="M12.6165 6.227L6.7665 0.377C6.52276 0.135252 6.19329 -0.000273535 5.85 4.14513e-07H1.3C0.955219 4.14513e-07 0.624559 0.136964 0.380762 0.380762C0.136964 0.624559 4.08155e-07 0.955219 4.08155e-07 1.3V5.85C-0.00013552 6.02154 0.0336809 6.19142 0.0995004 6.34983C0.16532 6.50824 0.261841 6.65206 0.3835 6.773L6.2335 12.623C6.47724 12.8647 6.80671 13.0003 7.15 13C7.49422 12.9985 7.82382 12.8606 8.0665 12.6165L12.6165 8.0665C12.8606 7.82382 12.9985 7.49422 13 7.15C13.0001 6.97846 12.9663 6.80858 12.9005 6.65017C12.8347 6.49176 12.7382 6.34794 12.6165 6.227ZM7.15 11.7L1.3 5.85V1.3H5.85L11.7 7.15M2.925 1.95C3.11784 1.95 3.30634 2.00718 3.46668 2.11432C3.62702 2.22145 3.75199 2.37373 3.82578 2.55188C3.89958 2.73004 3.91889 2.92608 3.88127 3.11521C3.84364 3.30434 3.75079 3.47807 3.61443 3.61443C3.47807 3.75079 3.30434 3.84364 3.11521 3.88127C2.92608 3.91889 2.73004 3.89958 2.55188 3.82578C2.37373 3.75199 2.22145 3.62702 2.11432 3.46668C2.00718 3.30634 1.95 3.11784 1.95 2.925C1.95 2.66641 2.05272 2.41842 2.23557 2.23557C2.41842 2.05272 2.66641 1.95 2.925 1.95Z" fill="#666666"/>
</svg>
