<svg width="19" height="21" viewBox="0 0 19 21" fill="none" xmlns="http://www.w3.org/2000/svg">
<path d="M0.947077 11.3844C0.812459 11.519 0.755831 11.704 0.776366 11.8807V17.6905C0.776366 18.0251 1.04896 18.2975 1.38371 18.2975H7.16887C7.20192 18.3024 7.23309 18.3049 7.26677 18.3049C7.42067 18.3049 7.57722 18.2456 7.69597 18.1269L17.9635 7.86555C18.201 7.62817 18.201 7.24496 17.9635 7.00758L12.073 1.1206C11.8454 0.893134 11.4422 0.893134 11.2146 1.1206L11.2146 1.1206L0.947077 11.3844ZM0.947077 11.3844L0.982421 11.4198M0.947077 11.3844L0.947072 11.3844L0.982421 11.4198M0.982421 11.4198C0.858568 11.5436 0.806549 11.7144 0.826366 11.8778L7.17264 18.2475C7.20484 18.2525 7.23456 18.2549 7.26677 18.2549C7.40796 18.2549 7.55163 18.2005 7.66062 18.0915L17.9281 7.83018C18.1461 7.61233 18.1461 7.26079 17.9281 7.04294L12.0376 1.15596C11.8295 0.948012 11.458 0.948012 11.2499 1.15596L0.982421 11.4198ZM16.6758 7.43657L7.02313 17.0835H1.99105V12.0545L11.6438 2.40998L16.6758 7.43657Z" fill="white" stroke="white" stroke-width="0.1"/>
<path d="M10.3275 2.86638L10.2921 2.83103L10.2567 2.86638L9.46854 3.65411L9.43317 3.68945L9.46854 3.7248L15.359 9.61178L15.3944 9.64712L15.4298 9.61178L16.218 8.82405L16.2533 8.7887L16.218 8.75336L10.3275 2.86638Z" fill="white" stroke="white" stroke-width="0.1"/>
<path d="M0.954314 12.2497L0.954322 12.2497L6.83737 18.1267C6.83738 18.1267 6.83738 18.1268 6.83738 18.1268C6.95605 18.2453 7.11008 18.3048 7.26657 18.3048C7.42048 18.3048 7.57703 18.2454 7.69577 18.1267C7.9333 17.8894 7.9333 17.5062 7.69577 17.2688L7.69577 17.2688L1.81271 11.3917C1.81271 11.3917 1.81271 11.3917 1.81271 11.3917C1.5752 11.1543 1.19182 11.1543 0.954314 11.3917C0.716791 11.6291 0.716791 12.0123 0.954314 12.2497Z" fill="white" stroke="white" stroke-width="0.1"/>
<path d="M1.3757 20.3545H16.0103C16.345 20.3545 16.6176 20.0821 16.6176 19.7474C16.6176 19.4128 16.345 19.1404 16.0103 19.1404H1.3757C1.04096 19.1404 0.768359 19.4128 0.768359 19.7474C0.768359 20.0821 1.04096 20.3545 1.3757 20.3545Z" fill="white" stroke="white" stroke-width="0.1"/>
</svg>
