<svg width="20" height="21" viewBox="0 0 20 21" fill="none" xmlns="http://www.w3.org/2000/svg">
<path d="M1.94708 11.3844C1.81246 11.519 1.75583 11.704 1.77637 11.8807V17.6905C1.77637 18.0251 2.04896 18.2975 2.38371 18.2975H8.16887C8.20192 18.3024 8.23309 18.3049 8.26677 18.3049C8.42067 18.3049 8.57722 18.2456 8.69597 18.1269L18.9635 7.86555C19.201 7.62817 19.201 7.24496 18.9635 7.00758L13.073 1.1206C12.8454 0.893134 12.4422 0.893134 12.2146 1.1206L12.2146 1.1206L1.94708 11.3844ZM1.94708 11.3844L1.98242 11.4198M1.94708 11.3844L1.94707 11.3844L1.98242 11.4198M1.98242 11.4198C1.85857 11.5436 1.80655 11.7144 1.82637 11.8778L8.17264 18.2475C8.20484 18.2525 8.23456 18.2549 8.26677 18.2549C8.40796 18.2549 8.55163 18.2005 8.66062 18.0915L18.9281 7.83018C19.1461 7.61233 19.1461 7.26079 18.9281 7.04294L13.0376 1.15596C12.8295 0.948012 12.458 0.948012 12.2499 1.15596L1.98242 11.4198ZM17.6758 7.43657L8.02313 17.0835H2.99105V12.0545L12.6438 2.40998L17.6758 7.43657Z" fill="#63B865" stroke="#63B865" stroke-width="0.1"/>
<path d="M11.3275 2.86638L11.2921 2.83103L11.2567 2.86638L10.4685 3.65411L10.4332 3.68945L10.4685 3.7248L16.359 9.61178L16.3944 9.64712L16.4298 9.61178L17.218 8.82405L17.2533 8.7887L17.218 8.75336L11.3275 2.86638Z" fill="#63B865" stroke="#63B865" stroke-width="0.1"/>
<path d="M1.95431 12.2497L1.95432 12.2497L7.83737 18.1267C7.83738 18.1267 7.83738 18.1268 7.83738 18.1268C7.95605 18.2453 8.11008 18.3048 8.26657 18.3048C8.42048 18.3048 8.57703 18.2454 8.69577 18.1267C8.9333 17.8894 8.9333 17.5062 8.69577 17.2688L8.69577 17.2688L2.81271 11.3917C2.81271 11.3917 2.81271 11.3917 2.81271 11.3917C2.5752 11.1543 2.19182 11.1543 1.95431 11.3917C1.71679 11.6291 1.71679 12.0123 1.95431 12.2497Z" fill="#63B865" stroke="#63B865" stroke-width="0.1"/>
<path d="M2.3757 20.3545H17.0103C17.345 20.3545 17.6176 20.0821 17.6176 19.7474C17.6176 19.4128 17.345 19.1404 17.0103 19.1404H2.3757C2.04096 19.1404 1.76836 19.4128 1.76836 19.7474C1.76836 20.0821 2.04096 20.3545 2.3757 20.3545Z" fill="#63B865" stroke="#63B865" stroke-width="0.1"/>
</svg>
