
<svg xmlns="http://www.w3.org/2000/svg" width="19" height="21" viewBox="0 0 19 21" fill="none">
<path d="M1.12872 11.3844C0.9941 11.519 0.937472 11.704 0.958006 11.8807V17.6905C0.958006 18.0251 1.23061 18.2975 1.56535 18.2975H7.35051C7.38356 18.3024 7.41473 18.3049 7.44841 18.3049C7.60231 18.3049 7.75886 18.2456 7.87761 18.1269L18.1451 7.86555C18.3826 7.62817 18.3826 7.24496 18.1451 7.00758L12.2546 1.1206C12.027 0.893134 11.6238 0.893134 11.3962 1.1206L11.3962 1.1206L1.12872 11.3844ZM1.12872 11.3844L1.16406 11.4198M1.12872 11.3844L1.12871 11.3844L1.16406 11.4198M1.16406 11.4198C1.04021 11.5436 0.98819 11.7144 1.00801 11.8778L7.35428 18.2475C7.38648 18.2525 7.4162 18.2549 7.44841 18.2549C7.5896 18.2549 7.73327 18.2005 7.84226 18.0915L18.1097 7.83018C18.3277 7.61233 18.3277 7.26079 18.1097 7.04294L12.2193 1.15596C12.0112 0.948012 11.6396 0.948012 11.4315 1.15596L1.16406 11.4198ZM16.8574 7.43657L7.20477 17.0835H2.17269V12.0545L11.8254 2.40998L16.8574 7.43657Z" fill="#63B865" stroke="#63B865" stroke-width="0.1"/>
<path d="M10.5091 2.86638L10.4737 2.83103L10.4384 2.86638L9.65018 3.65411L9.61482 3.68945L9.65018 3.7248L15.5407 9.61178L15.576 9.64712L15.6114 9.61178L16.3996 8.82405L16.435 8.7887L16.3996 8.75336L10.5091 2.86638Z" fill="#63B865" stroke="#63B865" stroke-width="0.1"/>
<path d="M1.13595 12.2497L1.13596 12.2497L7.01901 18.1267C7.01902 18.1267 7.01902 18.1268 7.01902 18.1268C7.13769 18.2453 7.29172 18.3048 7.44821 18.3048C7.60212 18.3048 7.75867 18.2454 7.87741 18.1267C8.11494 17.8894 8.11494 17.5062 7.87741 17.2688L7.87741 17.2688L1.99435 11.3917C1.99435 11.3917 1.99435 11.3917 1.99435 11.3917C1.75684 11.1543 1.37346 11.1543 1.13595 11.3917C0.898432 11.6291 0.898432 12.0123 1.13595 12.2497Z" fill="#63B865" stroke="#63B865" stroke-width="0.1"/>
<path d="M1.55734 20.3545H16.1919C16.5267 20.3545 16.7993 20.0821 16.7993 19.7474C16.7993 19.4128 16.5267 19.1404 16.1919 19.1404H1.55734C1.2226 19.1404 0.95 19.4128 0.95 19.7474C0.95 20.0821 1.2226 20.3545 1.55734 20.3545Z" fill="#63B865" stroke="#63B865" stroke-width="0.1"/>
</svg>