<svg width="50" height="37" viewBox="0 0 50 37" fill="none" xmlns="http://www.w3.org/2000/svg">
<g filter="url(#filter0_d_3394_2609)">
<mask id="path-1-inside-1_3394_2609" fill="white">
<path fill-rule="evenodd" clip-rule="evenodd" d="M8.98969 6C7.33853 6 6 7.33853 6 8.98969V23.1784C6 24.8295 7.33853 26.1681 8.98969 26.1681H21.8364L24.7643 31L27.6922 26.1681H40.5397C42.1909 26.1681 43.5294 24.8295 43.5294 23.1784V8.98969C43.5294 7.33853 42.1909 6 40.5397 6H8.98969Z"/>
</mask>
<path fill-rule="evenodd" clip-rule="evenodd" d="M8.98969 6C7.33853 6 6 7.33853 6 8.98969V23.1784C6 24.8295 7.33853 26.1681 8.98969 26.1681H21.8364L24.7643 31L27.6922 26.1681H40.5397C42.1909 26.1681 43.5294 24.8295 43.5294 23.1784V8.98969C43.5294 7.33853 42.1909 6 40.5397 6H8.98969Z" fill="white"/>
<path d="M21.8364 26.1681L22.6916 25.6498C22.5104 25.3508 22.1861 25.1681 21.8364 25.1681V26.1681ZM24.7643 31L23.909 31.5182C24.0903 31.8173 24.4146 32 24.7643 32C25.114 32 25.4383 31.8173 25.6195 31.5182L24.7643 31ZM27.6922 26.1681V25.1681C27.3424 25.1681 27.0181 25.3508 26.8369 25.6498L27.6922 26.1681ZM7 8.98969C7 7.89081 7.89081 7 8.98969 7V5C6.78625 5 5 6.78624 5 8.98969H7ZM7 23.1784V8.98969H5V23.1784H7ZM8.98969 25.1681C7.89081 25.1681 7 24.2773 7 23.1784H5C5 25.3818 6.78624 27.1681 8.98969 27.1681V25.1681ZM21.8364 25.1681H8.98969V27.1681H21.8364V25.1681ZM25.6195 30.4818L22.6916 25.6498L20.9812 26.6863L23.909 31.5182L25.6195 30.4818ZM26.8369 25.6498L23.909 30.4818L25.6195 31.5182L28.5474 26.6863L26.8369 25.6498ZM40.5397 25.1681H27.6922V27.1681H40.5397V25.1681ZM42.5294 23.1784C42.5294 24.2773 41.6386 25.1681 40.5397 25.1681V27.1681C42.7432 27.1681 44.5294 25.3818 44.5294 23.1784H42.5294ZM42.5294 8.98969V23.1784H44.5294V8.98969H42.5294ZM40.5397 7C41.6386 7 42.5294 7.89081 42.5294 8.98969H44.5294C44.5294 6.78625 42.7432 5 40.5397 5V7ZM8.98969 7H40.5397V5H8.98969V7Z" fill="#63B865" mask="url(#path-1-inside-1_3394_2609)"/>
</g>
<defs>
<filter id="filter0_d_3394_2609" x="0.0206184" y="0.0206184" width="49.4881" height="36.9588" filterUnits="userSpaceOnUse" color-interpolation-filters="sRGB">
<feFlood flood-opacity="0" result="BackgroundImageFix"/>
<feColorMatrix in="SourceAlpha" type="matrix" values="0 0 0 0 0 0 0 0 0 0 0 0 0 0 0 0 0 0 127 0" result="hardAlpha"/>
<feOffset/>
<feGaussianBlur stdDeviation="2.98969"/>
<feComposite in2="hardAlpha" operator="out"/>
<feColorMatrix type="matrix" values="0 0 0 0 0 0 0 0 0 0 0 0 0 0 0 0 0 0 0.1 0"/>
<feBlend mode="normal" in2="BackgroundImageFix" result="effect1_dropShadow_3394_2609"/>
<feBlend mode="normal" in="SourceGraphic" in2="effect1_dropShadow_3394_2609" result="shape"/>
</filter>
</defs>
</svg>
