<svg width="32" height="14" viewBox="0 0 32 14" fill="none" xmlns="http://www.w3.org/2000/svg">
<path d="M30.8725 1.2705C30.0824 0.413616 28.9954 0.232913 28.4392 0.174621C25.3991 -0.163471 19.7425 0.844975 16.0389 0.839146C12.2531 0.839146 7.33592 -0.215933 3.68282 0.174621C3.13928 0.232913 2.06483 0.384471 1.24952 1.2705C0.62382 1.94669 0.238281 2.88518 0.238281 3.91695V9.20983C0.238281 10.2416 0.62382 11.1801 1.24952 11.8563C2.03955 12.7132 3.12664 12.8939 3.68282 12.9522C6.72285 13.2902 12.3795 12.2818 16.0831 12.2876C19.8689 12.2876 24.7861 13.3427 28.4392 12.9522C28.9827 12.8939 30.0572 12.7423 30.8725 11.8563C31.4982 11.1801 31.8837 10.2416 31.8837 9.20983V3.91695C31.8837 2.88518 31.4982 1.94669 30.8725 1.2705Z" fill="#63B865"/>
</svg>
