<svg width="43" height="43" viewBox="0 0 43 43" fill="none" xmlns="http://www.w3.org/2000/svg">
<path fill-rule="evenodd" clip-rule="evenodd" d="M3 21.5C3 11.2827 11.2827 3 21.5 3C26.1324 3 30.3671 4.7026 33.6125 7.51616L7.51616 33.6125C4.7026 30.3671 3 26.1324 3 21.5ZM9.6577 35.7136C12.8663 38.3898 16.9951 40 21.5 40C31.7173 40 40 31.7173 40 21.5C40 16.9951 38.3898 12.8663 35.7136 9.6577L9.6577 35.7136ZM21.5 0C9.62588 0 0 9.62588 0 21.5C0 33.3741 9.62588 43 21.5 43C33.3741 43 43 33.3741 43 21.5C43 9.62588 33.3741 0 21.5 0Z" fill="#FFD747"/>
</svg>
