<svg width="33" height="12" viewBox="0 0 33 12" fill="none" xmlns="http://www.w3.org/2000/svg">
<path d="M5.74656 3.152C5.74656 4.016 5.51723 4.688 5.05856 5.168C4.5999 5.63733 3.98656 5.872 3.21856 5.872C2.5039 5.872 1.9119 5.64267 1.44256 5.184C0.973229 4.71467 0.738563 4.03733 0.738563 3.152C0.738563 2.27733 0.962563 1.61067 1.41056 1.152C1.85856 0.682666 2.4719 0.447999 3.25056 0.447999C3.7519 0.447999 4.18923 0.554666 4.56256 0.768C4.9359 0.970666 5.2239 1.27467 5.42656 1.68C5.6399 2.07467 5.74656 2.56533 5.74656 3.152ZM1.74656 3.152C1.74656 3.77067 1.8639 4.24 2.09856 4.56C2.33323 4.86933 2.7119 5.024 3.23456 5.024C3.75723 5.024 4.1359 4.86933 4.37056 4.56C4.60523 4.24 4.72256 3.77067 4.72256 3.152C4.72256 2.52267 4.60523 2.05867 4.37056 1.76C4.1359 1.45067 3.75723 1.296 3.23456 1.296C2.7119 1.296 2.33323 1.45067 2.09856 1.76C1.8639 2.05867 1.74656 2.52267 1.74656 3.152ZM23.5625 2.84375H23.9297C25.3932 3.69792 26.125 4.30729 26.125 4.67188V5.03906C26.125 8.46094 25.2708 10.1719 23.5625 10.1719C23.5625 10.7812 22.0964 11.1458 19.1641 11.2656H16.6016C16.0495 11.2656 15.5599 11.1432 15.1328 10.8984C14.7057 11.1432 14.2188 11.2656 13.6719 11.2656C9.03125 11.2656 6.71094 9.67969 6.71094 6.50781V5.77344C6.71094 4.95573 7.07812 4.10156 7.8125 3.21094C10.6823 3.45573 12.7578 3.57812 14.0391 3.57812H14.7656C20.2604 3.08854 23.1927 2.84375 23.5625 2.84375ZM21.7266 3.94531V5.40625L21.3594 7.96875H20.6328V7.60938C20.6328 7.42188 20.7526 6.6875 20.9922 5.40625C20.7526 4.97917 20.6328 4.49219 20.6328 3.94531H20.2656L16.6016 4.3125V8.33594H15.8672V5.03906C15.8672 4.55469 15.6224 4.3125 15.1328 4.3125H11.4688V8.33594H10.7422V5.77344L10.375 3.94531H8.53906C8.1901 3.94531 7.82552 4.3099 7.44531 5.03906V5.77344C7.44531 8.95052 9.52083 10.5391 13.6719 10.5391L14.4062 10.1719C17.4271 10.4167 19.013 10.5391 19.1641 10.5391C23.3151 10.5391 25.3906 8.95052 25.3906 5.77344V5.40625C25.3906 4.76042 24.7812 4.15104 23.5625 3.57812L21.7266 3.94531ZM32.2778 3.152C32.2778 4.016 32.0485 4.688 31.5898 5.168C31.1311 5.63733 30.5178 5.872 29.7498 5.872C29.0351 5.872 28.4431 5.64267 27.9738 5.184C27.5045 4.71467 27.2698 4.03733 27.2698 3.152C27.2698 2.27733 27.4938 1.61067 27.9418 1.152C28.3898 0.682666 29.0031 0.447999 29.7818 0.447999C30.2831 0.447999 30.7205 0.554666 31.0938 0.768C31.4671 0.970666 31.7551 1.27467 31.9578 1.68C32.1711 2.07467 32.2778 2.56533 32.2778 3.152ZM28.2778 3.152C28.2778 3.77067 28.3951 4.24 28.6298 4.56C28.8645 4.86933 29.2431 5.024 29.7658 5.024C30.2885 5.024 30.6671 4.86933 30.9018 4.56C31.1365 4.24 31.2538 3.77067 31.2538 3.152C31.2538 2.52267 31.1365 2.05867 30.9018 1.76C30.6671 1.45067 30.2885 1.296 29.7658 1.296C29.2431 1.296 28.8645 1.45067 28.6298 1.76C28.3951 2.05867 28.2778 2.52267 28.2778 3.152Z" fill="black"/>
</svg>
