<svg xmlns="http://www.w3.org/2000/svg" width="19" height="19" viewBox="0 0 19 19" fill="none">
  <path d="M11.3219 8.06606H16.5303C16.7021 8.06606 16.867 7.99778 16.9885 7.87623C17.1101 7.75469 17.1784 7.58984 17.1784 7.41795C17.1784 5.86473 16.5613 4.37512 15.4631 3.27683C14.3648 2.17854 12.8752 1.56152 11.3219 1.56152C11.15 1.56152 10.9852 1.62981 10.8637 1.75135C10.7421 1.8729 10.6738 2.03774 10.6738 2.20963V7.41795C10.6738 7.58984 10.7421 7.75469 10.8637 7.87623C10.9852 7.99778 11.15 8.06606 11.3219 8.06606Z" fill="#666666"/>
  <path d="M16.4606 9.37044H10.0966C10.0033 9.37044 9.91087 9.35206 9.82465 9.31635C9.73844 9.28064 9.66011 9.2283 9.59413 9.16232C9.52814 9.09633 9.4758 9.018 9.44009 8.93179C9.40438 8.84558 9.386 8.75318 9.386 8.65986V2.28026C9.3866 2.17898 9.36578 2.07871 9.32489 1.98604C9.28401 1.89337 9.22399 1.81039 9.14878 1.74255C9.07357 1.67471 8.98486 1.62355 8.88848 1.59241C8.79209 1.56127 8.69022 1.55086 8.58953 1.56188C7.12366 1.71753 5.7318 2.28493 4.57489 3.19846C3.41798 4.112 2.54329 5.33435 2.05197 6.72417C1.56064 8.11398 1.47276 9.61448 1.79847 11.0522C2.12419 12.4898 2.8502 13.8059 3.89255 14.8483C4.9349 15.8906 6.251 16.6166 7.68867 16.9424C9.12634 17.2681 10.6268 17.1802 12.0167 16.6889C13.4065 16.1975 14.6288 15.3228 15.5424 14.1659C16.4559 13.009 17.0233 11.6172 17.179 10.1513C17.1876 10.0518 17.1755 9.95167 17.1433 9.85716C17.1111 9.76266 17.0596 9.67591 16.992 9.60244C16.9244 9.52896 16.8422 9.47039 16.7507 9.43044C16.6592 9.3905 16.5604 9.37006 16.4606 9.37044Z" fill="#666666"/>
</svg>