<svg xmlns="http://www.w3.org/2000/svg" width="14" height="14" viewBox="0 0 14 14" fill="none">
  <path d="M10.5385 8.37852V10.7042C10.5385 11.2469 10.1004 11.685 9.55771 11.685H2.94251C2.39978 11.685 1.96167 11.2469 1.96167 10.7042V4.08899C1.96167 3.54627 2.39978 3.10816 2.94251 3.10816H5.26818C5.81091 3.10816 6.24902 2.67005 6.24902 2.12732C6.24902 1.58459 5.81091 1.14648 5.26818 1.14648H2.86622C1.28381 1.14648 0 2.43029 0 4.01489V10.7805C0 12.3629 1.28381 13.6467 2.86622 13.6467H9.63182C11.2142 13.6467 12.498 12.3629 12.498 10.7805V8.37852C12.498 7.83579 12.0599 7.39768 11.5172 7.39768C10.9745 7.39768 10.5364 7.83579 10.5364 8.37852H10.5385Z" fill="#FFD747"/>
  <path d="M6.87747 8.21042C6.59848 8.21042 6.31949 8.10362 6.10588 7.8922C5.68085 7.46717 5.68085 6.77622 6.10588 6.35119L10.8836 1.57561C11.3087 1.15058 11.9996 1.15058 12.4247 1.57561C12.8497 2.00064 12.8497 2.69158 12.4247 3.11661L7.64906 7.8922C7.43546 8.1058 7.15647 8.21042 6.87747 8.21042Z" fill="#FFD747"/>
  <path d="M13.9968 4.70584V1.14431C13.9968 0.830442 13.8617 0.549269 13.6481 0.348742C13.4497 0.135138 13.1686 0 12.8547 0H9.29099C8.68941 0 8.20117 0.488239 8.20117 1.08982C8.20117 1.39061 8.32323 1.66306 8.5194 1.86141C8.71557 2.05976 8.9902 2.17964 9.29099 2.17964H11.8194V4.70802C11.8194 5.00881 11.9414 5.28126 12.1376 5.47961C12.3338 5.67796 12.6084 5.79784 12.9092 5.79784C13.5108 5.79784 13.999 5.3096 13.999 4.70802L13.9968 4.70584Z" fill="#FFD747"/>
</svg>