<svg xmlns="http://www.w3.org/2000/svg" width="18" height="19" viewBox="0 0 18 19" fill="none">
  <path d="M1.67257 2.93271V2.54228L1.2938 2.44762C0.818675 2.32889 0.5 1.93078 0.5 1.49223C0.5 0.969978 0.955588 0.5 1.57873 0.5H16.4213C17.0219 0.5 17.4669 0.936671 17.4982 1.43591V1.49223C17.4982 1.93078 17.1796 2.32889 16.7044 2.44762L16.3257 2.54228V2.93271V11.9678C16.3257 12.2492 16.0755 12.5244 15.7078 12.5244H13.8766H13.0356L13.4373 13.2633L15.8496 17.6999L15.8497 17.7001C15.9879 17.9541 15.896 18.2828 15.5897 18.4327C15.4933 18.4785 15.3926 18.5 15.2964 18.5C15.0583 18.5 14.8439 18.3755 14.7415 18.187L13.7615 16.3828L13.5947 16.0758L13.249 16.1268C13.2122 16.1323 13.1805 16.1348 13.149 16.1348H4.84921C4.81916 16.1348 4.78557 16.1322 4.74921 16.1268L4.40356 16.0758L4.23678 16.3828L3.2567 18.1872L3.25631 18.1879C3.15415 18.3767 2.94247 18.5 2.70185 18.5C2.60067 18.5 2.50309 18.4788 2.41073 18.4338L2.1915 18.8832L2.41073 18.4338C2.10333 18.2838 2.01059 17.9536 2.14857 17.7001L2.14868 17.6999L4.56092 13.2633L4.96264 12.5244H4.12165H2.2904C1.92207 12.5244 1.67257 12.2486 1.67257 11.9678V2.93271ZM12.1831 15.0233H13.024L12.6223 14.2845L11.8065 12.7839L11.6645 12.5228H11.3672H6.63279H6.33551L6.19352 12.7839L5.37766 14.2845L4.97596 15.0233H5.81693H12.1831ZM2.90646 10.9113V11.4113H3.40646H14.0918H14.5918H14.5935V10.9113H15.0918V3.06624V2.56624H14.5918H3.40646H2.90646V3.06624V10.9113Z" fill="#231815" stroke="black"/>
</svg>