<svg xmlns="http://www.w3.org/2000/svg" width="18" height="19" viewBox="0 0 18 19" fill="none">
  <path d="M18 1.49223C18 0.667662 17.2936 0 16.4213 0H1.57873C0.706367 0 0 0.667662 0 1.49223C0 2.18326 0.497989 2.76412 1.17257 2.93271V11.9678C1.17257 12.5504 1.67232 13.0244 2.2904 13.0244H4.12165L1.70941 17.461C1.42686 17.9801 1.64407 18.6161 2.1915 18.8832C2.35573 18.9633 2.52879 19 2.70185 19C3.10802 19 3.49828 18.7914 3.69607 18.4258L4.67615 16.6215C4.73266 16.6298 4.79094 16.6348 4.84921 16.6348H13.149C13.2091 16.6348 13.2656 16.6298 13.3221 16.6215L14.3022 18.4258C14.5 18.7897 14.892 19 15.2964 19C15.4677 19 15.6425 18.9616 15.8067 18.8832C16.3559 18.6161 16.5714 17.9801 16.2888 17.461L13.8766 13.0244H15.7078C16.3241 13.0244 16.8257 12.552 16.8257 11.9678V2.93271C17.5002 2.76412 17.9982 2.18326 17.9982 1.49223H18ZM12.1831 14.5233H5.81693L6.63279 13.0228H11.3672L12.1831 14.5233ZM14.5935 10.9113H3.40646V3.06624H14.5918V10.9113H14.5935Z" fill="#666666"/>
</svg>