<svg xmlns="http://www.w3.org/2000/svg" width="12" height="12" viewBox="0 0 12 12" fill="none">
<circle cx="6" cy="6" r="5" stroke="#333333"/>
<path fill-rule="evenodd" clip-rule="evenodd" d="M8.29922 4.44016C8.29922 4.18575 8.24835 3.94666 8.14091 3.72875C8.04063 3.50938 7.89399 3.32208 7.70452 3.16885C7.5194 3.01479 7.29826 2.9014 7.0481 2.82377C6.79196 2.739 6.5096 2.69922 6.20476 2.69922C5.83383 2.69922 5.49248 2.75932 5.18627 2.88673C4.90084 3.00045 4.65049 3.14281 4.44009 3.31695C4.29974 3.42793 4.21036 3.58273 4.19971 3.76954L4.19922 3.77807V3.78662C4.19922 3.94855 4.25501 4.09556 4.35462 4.21906L4.35629 4.22111C4.45829 4.34531 4.5934 4.43703 4.76056 4.46756C4.93759 4.4999 5.10218 4.45161 5.23942 4.35357L5.24608 4.34881L5.25247 4.3437C5.38132 4.24059 5.52117 4.15799 5.67269 4.09537L5.67957 4.09243C5.81094 4.03426 5.97792 4.00001 6.1886 4.00001C6.49316 4.00001 6.65572 4.06717 6.73851 4.14245L6.74216 4.14571C6.84516 4.23634 6.8909 4.33832 6.8909 4.47166V4.52678C6.8909 4.59203 6.88301 4.64446 6.8707 4.68644C6.861 4.71951 6.83856 4.76845 6.79222 4.83411L6.78483 4.84509C6.7473 4.90358 6.686 4.97776 6.59358 5.06779L6.58785 5.07353C6.50029 5.16355 6.38184 5.27196 6.23008 5.3994L6.22567 5.40318C6.06319 5.54508 5.92627 5.67785 5.81787 5.80104C5.70831 5.92556 5.61743 6.05345 5.54988 6.18506L5.54698 6.19086C5.48496 6.31839 5.44356 6.45296 5.42295 6.59348C5.40434 6.7204 5.39552 6.8559 5.39552 6.99922C5.39552 7.18462 5.46058 7.37445 5.63734 7.49744L5.64707 7.50421L5.65731 7.51019C5.7883 7.58676 5.93305 7.62205 6.08351 7.62205C6.23818 7.62205 6.38492 7.57905 6.51352 7.48957C6.67731 7.3756 6.75534 7.20307 6.75534 7.01497C6.75534 6.94268 6.75943 6.8799 6.76671 6.82588C6.77585 6.78923 6.79226 6.7481 6.81918 6.70219L6.82356 6.69447C6.84997 6.64623 6.89601 6.58363 6.97016 6.50688L6.97602 6.50065C7.05302 6.41627 7.15794 6.31364 7.29313 6.19203C7.45842 6.04706 7.602 5.91023 7.72265 5.78171C7.85028 5.65147 7.95784 5.52099 8.04124 5.39006C8.12914 5.25523 8.19669 5.11629 8.23859 4.97342L8.23961 4.96986C8.27997 4.8257 8.29922 4.67493 8.29922 4.5189V4.44016ZM5.48038 9.05885L5.48619 9.06451C5.64795 9.22208 5.85116 9.29922 6.07543 9.29922C6.30042 9.29922 6.50724 9.22489 6.66753 9.06171C6.82781 8.90415 6.90892 8.70354 6.90892 8.47953C6.90892 8.25666 6.82837 8.05636 6.66471 7.90238C6.50482 7.74119 6.2991 7.66772 6.07543 7.66772C5.85116 7.66772 5.64795 7.74486 5.48619 7.90244C5.32596 8.05852 5.25003 8.25928 5.25003 8.47953C5.25003 8.69976 5.32561 8.8997 5.48038 9.05885Z" fill="#333333"/>
</svg>