<svg xmlns="http://www.w3.org/2000/svg" width="20" height="20" viewBox="0 0 20 20" fill="none">
  <path d="M6.17677 2.10242L6.17675 2.10245C6.05383 2.29675 5.96636 2.50924 5.90589 2.73502H3.00483C2.29571 2.73502 1.71836 3.30895 1.71836 4.01587V4.77354C1.71836 5.48045 2.29571 6.05438 3.00483 6.05438H3.45826L3.86216 17.4682C3.86241 17.7206 3.91725 18.5956 4.56829 19.209C5.03055 19.645 5.54459 19.7124 5.80398 19.7152C5.80414 19.7152 5.80431 19.7152 5.80448 19.7152L10.0072 19.7937L10.0072 19.7938L10.011 19.7937L14.1872 19.7152C14.1875 19.7152 14.1879 19.7152 14.1882 19.7152C14.4561 19.715 14.97 19.6473 15.4321 19.209C16.0829 18.5958 16.1379 17.7211 16.1382 17.4833L16.5421 6.05438H16.9955C17.7046 6.05438 18.282 5.48045 18.282 4.77354V4.01587C18.282 3.30895 17.7046 2.73502 16.9955 2.73502H16.9904H14.0868C14.0264 2.50924 13.9389 2.29675 13.816 2.10245C13.4029 1.44796 12.7334 1.1264 12.0311 0.967487C11.3315 0.809177 10.5852 0.809179 10.0007 0.80918H9.99636H9.99201C9.40748 0.809179 8.66187 0.809177 7.96256 0.967489C7.26052 1.12642 6.59108 1.448 6.17677 2.10242ZM15.3185 6.138L14.9232 17.3588H14.9172V17.4588C14.9172 17.4842 14.9144 17.6295 14.8708 17.806C14.827 17.9836 14.7444 18.1825 14.5921 18.3261C14.4327 18.4759 14.2643 18.4991 14.1745 18.499L14.1726 18.4991L10.0091 18.5776L5.81757 18.4991L5.81757 18.4991H5.8157C5.73404 18.4991 5.56536 18.4762 5.40562 18.3261C5.25346 18.1825 5.1709 17.9837 5.12706 17.8043C5.08348 17.6261 5.08059 17.477 5.08059 17.4436H5.08065L5.08052 17.44L4.6819 6.138H15.3185ZM11.6083 2.11778C12.1248 2.21173 12.5509 2.39424 12.7747 2.73502H7.21798C7.44183 2.39424 7.86787 2.21173 8.38445 2.11778C8.90517 2.02307 9.49167 2.02278 9.99636 2.02278C10.501 2.02278 11.0876 2.02307 11.6083 2.11778ZM17.061 4.67354H17.0559V4.77354C17.0559 4.81007 17.0263 4.84078 16.9879 4.84078H3.00483C2.96696 4.84078 2.93679 4.81063 2.93679 4.77354V4.01587C2.93679 3.97933 2.96639 3.94862 3.00483 3.94862H16.993C17.0308 3.94862 17.061 3.97877 17.061 4.01587V4.67354Z" fill="#333333" stroke="#333333" stroke-width="0.2"/>
  <path d="M7.83148 16.5522C8.16633 16.5522 8.4407 16.2798 8.4407 15.9454V9.63571C8.4407 9.30129 8.16633 9.02891 7.83148 9.02891C7.49663 9.02891 7.22227 9.30129 7.22227 9.63571V15.9454C7.22227 16.2798 7.49663 16.5522 7.83148 16.5522Z" fill="#333333" stroke="#333333" stroke-width="0.2"/>
  <path d="M9.99554 16.5522C10.3304 16.5522 10.6048 16.2798 10.6048 15.9454V9.63571C10.6048 9.30129 10.3304 9.02891 9.99554 9.02891C9.66069 9.02891 9.38633 9.30129 9.38633 9.63571V15.9454C9.38633 16.2798 9.66069 16.5522 9.99554 16.5522Z" fill="#333333" stroke="#333333" stroke-width="0.2"/>
  <path d="M12.1635 16.5522C12.4984 16.5522 12.7727 16.2798 12.7727 15.9454V9.63571C12.7727 9.30129 12.4984 9.02891 12.1635 9.02891C11.8287 9.02891 11.5543 9.30129 11.5543 9.63571V15.9454C11.5543 16.2798 11.8287 16.5522 12.1635 16.5522Z" fill="#333333" stroke="#333333" stroke-width="0.2"/>
</svg>