<svg width="23" height="23" viewBox="0 0 23 23" fill="none" xmlns="http://www.w3.org/2000/svg">
<g id="&#236;&#130;&#173;&#236;&#160;&#156; &#236;&#149;&#132;&#236;&#157;&#180;&#236;&#189;&#152;">
<g id="&#236;&#130;&#173;&#236;&#160;&#156; &#236;&#149;&#132;&#236;&#157;&#180;&#236;&#189;&#152;_2">
<path id="Vector" d="M7.74504 2.32701L7.74503 2.32704C7.60855 2.54277 7.51175 2.77903 7.44515 3.03036H4.23389C3.45661 3.03036 2.82383 3.65946 2.82383 4.43421V5.2708C2.82383 6.04555 3.45661 6.67465 4.23389 6.67465H4.74461L5.19094 19.2876C5.1912 19.5653 5.2516 20.528 5.96735 21.2024C6.47523 21.6814 7.03993 21.7554 7.32478 21.7585C7.32494 21.7585 7.32511 21.7585 7.32528 21.7585L11.9659 21.8452L11.9659 21.8453L11.9696 21.8452L16.5811 21.7585C16.5814 21.7585 16.5817 21.7585 16.5821 21.7585C16.8763 21.7583 17.4408 21.684 17.9485 21.2024C18.664 20.5282 18.7246 19.5658 18.7249 19.3044L19.1712 6.67465H19.6819C20.4592 6.67465 21.092 6.04555 21.092 5.2708V4.43421C21.092 3.65946 20.4592 3.03036 19.6819 3.03036H19.6763H16.4623C16.3956 2.77903 16.2989 2.54277 16.1624 2.32704C15.7083 1.60762 14.9721 1.25359 14.1981 1.07845C13.4267 0.903904 12.6037 0.903905 11.9581 0.903906H11.9537H11.9493C11.3037 0.903905 10.4814 0.903904 9.71035 1.07845C8.9366 1.25361 8.20046 1.60766 7.74504 2.32701ZM17.841 6.76698L17.4038 19.1774H17.3976V19.2774C17.3976 19.306 17.3944 19.4674 17.346 19.6633C17.2974 19.8603 17.2055 20.082 17.0355 20.2426C16.8569 20.4104 16.668 20.4365 16.567 20.4365L16.5651 20.4365L11.9678 20.5232L7.33943 20.4365L7.33943 20.4365H7.33756C7.24557 20.4365 7.05648 20.4107 6.87767 20.2427C6.70758 20.0822 6.61572 19.8605 6.56706 19.6615C6.51868 19.4635 6.51545 19.298 6.51545 19.2606H6.51552L6.51539 19.2571L6.07486 6.76698H17.841ZM15.0403 3.02993L15.0406 3.03036H8.8668L8.86708 3.02993C9.11382 2.63982 9.59304 2.43345 10.172 2.32815C10.7481 2.22338 11.3966 2.22309 11.9537 2.22309C12.5108 2.22309 13.1593 2.22338 13.7354 2.32815C14.3144 2.43345 14.7936 2.63982 15.0403 3.02993L15.0403 3.02993ZM19.7647 5.1708H19.7591V5.2708C19.7591 5.31684 19.7218 5.35546 19.6735 5.35546H4.23389C4.18647 5.35546 4.14835 5.31766 4.14835 5.2708V4.43421C4.14835 4.38817 4.18564 4.34954 4.23389 4.34954H19.6791C19.7266 4.34954 19.7647 4.38734 19.7647 4.43421V5.1708Z" fill="#63B865" stroke="#63B865" stroke-width="0.2"/>
<path id="Vector_2" d="M9.56421 18.2662C9.92823 18.2662 10.2265 17.97 10.2265 17.6066V10.6397C10.2265 10.2762 9.92823 9.98008 9.56421 9.98008C9.20019 9.98008 8.90195 10.2762 8.90195 10.6397V17.6066C8.90195 17.97 9.20019 18.2662 9.56421 18.2662Z" fill="#63B865" stroke="#63B865" stroke-width="0.2"/>
<path id="Vector_3" d="M11.9529 18.2662C12.3169 18.2662 12.6151 17.97 12.6151 17.6066V10.6397C12.6151 10.2762 12.3169 9.98008 11.9529 9.98008C11.5889 9.98008 11.2906 10.2762 11.2906 10.6397V17.6066C11.2906 17.97 11.5889 18.2662 11.9529 18.2662Z" fill="#63B865" stroke="#63B865" stroke-width="0.2"/>
<path id="Vector_4" d="M14.3474 18.2662C14.7114 18.2662 15.0097 17.97 15.0097 17.6066V10.6397C15.0097 10.2762 14.7114 9.98008 14.3474 9.98008C13.9834 9.98008 13.6852 10.2762 13.6852 10.6397V17.6066C13.6852 17.97 13.9834 18.2662 14.3474 18.2662Z" fill="#63B865" stroke="#63B865" stroke-width="0.2"/>
</g>
</g>
</svg>
